<svg width="64" height="121" viewBox="0 0 64 121" fill="none" xmlns="http://www.w3.org/2000/svg">
<path d="M62.3927 3.63966C65.086 35.6155 54.6371 66.9612 33.7926 91.456C27.0396 99.3916 19.0324 105.616 9.88547 110.474C7.92847 111.513 -1.04337 113.639 5.39199 113.792C14.3328 114.003 23.1874 109.154 31.9138 109.566C38.5147 109.877 18.6901 110.037 12.0892 109.726C-0.0482836 109.153 6.08443 104.08 11.3833 96.6064C14.1325 92.7288 18.6153 88.2972 22.5084 85.5064C24.2713 84.2427 20.7552 86.5019 20.5222 86.7517C18.3386 89.0926 17.008 91.9787 15.5647 94.7952C12.6078 100.565 7.98012 105.638 4.26174 110.939C3.29572 112.316 -1.16489 116.769 2.41248 116.938C7.57829 117.182 12.0157 115.534 17.143 114.955C25.5367 114.007 33.5861 114.027 41.9846 114.423" stroke="black" stroke-linecap="round" stroke-linejoin="round"/>
</svg>
