<svg width="1440" height="813" viewBox="0 0 1440 813" fill="none" xmlns="http://www.w3.org/2000/svg">
<path d="M37.0427 391.791C49.4186 382.979 61.9155 372.684 75.1804 365.102C76.7456 364.207 73.5142 368.338 72.3368 369.703C68.4991 374.154 62.9902 378.702 61.5479 384.679C60.0004 391.092 60.0903 397.215 63.3042 403.002C64.3384 404.864 62.028 405.582 60.5442 405.93C56.1397 406.961 52.7735 408.7 49.8389 412.288C47.7758 414.811 44.8369 428.911 40.3881 425.173C37.6084 422.837 35.4574 419.709 32.5264 417.559C29.022 414.988 23.6933 414.32 19.6465 412.874C16.0682 411.596 17.2938 405.438 16.9702 402.583C16.3068 396.731 14.2681 391.334 13.5411 385.516C13.2037 382.816 10.113 377.532 14.8375 379.283C20.0294 381.206 24.6171 384.232 29.85 386.101C33.4007 387.37 35.943 390.691 38.5481 393.297" stroke="#B39681" stroke-linecap="round" stroke-linejoin="round"/>
<path d="M1401.03 287.793C1388.65 278.981 1376.15 268.686 1362.89 261.104C1361.32 260.209 1364.56 264.34 1365.73 265.705C1369.57 270.156 1375.08 274.704 1376.52 280.681C1378.07 287.094 1377.98 293.216 1374.77 299.004C1373.73 300.866 1376.04 301.584 1377.53 301.932C1381.93 302.963 1385.3 304.702 1388.23 308.29C1390.29 310.813 1393.23 324.913 1397.68 321.175C1400.46 318.839 1402.61 315.711 1405.54 313.561C1409.05 310.99 1414.38 310.322 1418.42 308.876C1422 307.598 1420.78 301.44 1421.1 298.585C1421.76 292.733 1423.8 287.336 1424.53 281.518C1424.87 278.817 1427.96 273.534 1423.23 275.285C1418.04 277.208 1413.45 280.234 1408.22 282.103C1404.67 283.372 1402.13 286.693 1399.52 289.298" stroke="#B39681" stroke-linecap="round" stroke-linejoin="round"/>
<path d="M92.3427 612.411C92.3427 597.123 87.579 584.169 85.1277 569.106C83.7306 560.521 82.8093 551.733 81.9342 543.076C81.4098 537.889 81.8629 537.984 84.418 542.366C91.4626 554.447 95.0766 568.837 99.735 581.944C101.495 586.895 105.595 603.133 112.213 602.827C122.491 602.352 133.2 596.281 143.202 593.48C149.452 591.729 132.594 600.971 127.471 604.957C124.847 606.998 122.789 609.606 119.488 610.34C114.845 611.372 120.008 623.71 120.611 625.308C126.358 640.524 129.672 654.996 131.729 671.097C132.171 674.557 135.043 684.686 130.192 678.433C125.316 672.149 119.932 666.516 115.762 659.679C111.388 652.508 107.351 645.064 104.23 637.258C102.774 633.617 102.716 630.818 98.5523 632.762C82.7927 640.119 66.937 644.491 49.5259 646.25C46.6873 646.537 43.8419 646.656 41.0099 647.019C39.9105 647.16 37.103 648.25 37.6981 647.315C40.6939 642.606 49.4112 639.287 54.0205 636.785C62.8933 631.968 72.5713 627.887 80.7514 621.936C84.3877 619.29 90.5528 615.589 95.0039 614.6C97.8543 613.966 96.2198 611.268 95.5362 609.216" stroke="#F0AA87" stroke-linecap="round" stroke-linejoin="round"/>
<path d="M1345.73 508.413C1345.73 493.125 1350.49 480.171 1352.95 465.108C1354.34 456.523 1355.26 447.735 1356.14 439.078C1356.66 433.891 1356.21 433.986 1353.66 438.368C1346.61 450.448 1343 464.839 1338.34 477.946C1336.58 482.897 1332.48 499.135 1325.86 498.829C1315.58 498.354 1304.87 492.283 1294.87 489.482C1288.62 487.731 1305.48 496.973 1310.6 500.959C1313.23 503 1315.28 505.608 1318.59 506.342C1323.23 507.374 1318.07 519.712 1317.46 521.31C1311.72 536.526 1308.4 550.998 1306.34 567.099C1305.9 570.559 1303.03 580.688 1307.88 574.435C1312.76 568.151 1318.14 562.518 1322.31 555.681C1326.69 548.51 1330.72 541.066 1333.84 533.26C1335.3 529.619 1335.36 526.82 1339.52 528.764C1355.28 536.121 1371.14 540.493 1388.55 542.252C1391.39 542.539 1394.23 542.658 1397.06 543.021C1398.16 543.162 1400.97 544.252 1400.38 543.317C1397.38 538.608 1388.66 535.289 1384.05 532.787C1375.18 527.97 1365.5 523.889 1357.32 517.937C1353.69 515.292 1347.52 511.591 1343.07 510.602C1340.22 509.968 1341.85 507.27 1342.54 505.218" stroke="#F0AA87" stroke-linecap="round" stroke-linejoin="round"/>
<path d="M110.176 178.74C110.176 174.757 108.947 171.382 108.314 167.458C107.954 165.221 107.716 162.931 107.49 160.676C107.355 159.324 107.472 159.349 108.131 160.491C109.949 163.638 110.882 167.388 112.084 170.802C112.538 172.092 113.596 176.323 115.304 176.243C117.956 176.119 120.719 174.538 123.301 173.808C124.913 173.352 120.563 175.759 119.241 176.798C118.564 177.33 118.033 178.009 117.181 178.2C115.983 178.469 117.315 181.684 117.471 182.1C118.954 186.064 119.809 189.835 120.34 194.03C120.454 194.931 121.195 197.57 119.943 195.941C118.685 194.304 117.296 192.836 116.219 191.055C115.091 189.187 114.049 187.247 113.244 185.213C112.868 184.265 112.853 183.536 111.778 184.042C107.712 185.959 103.62 187.098 99.127 187.556C98.3945 187.631 97.6603 187.662 96.9295 187.757C96.6458 187.793 95.9213 188.077 96.0748 187.834C96.8479 186.607 99.0974 185.742 100.287 185.09C102.577 183.835 105.074 182.772 107.185 181.221C108.123 180.532 109.714 179.568 110.863 179.31C111.598 179.145 111.177 178.442 111 177.908" stroke="#795548" stroke-linecap="round" stroke-linejoin="round"/>
<path d="M1327.89 74.7419C1327.89 70.7589 1329.12 67.384 1329.76 63.4595C1330.12 61.2227 1330.35 58.9332 1330.58 56.6777C1330.72 55.3263 1330.6 55.3512 1329.94 56.4927C1328.12 59.6402 1327.19 63.3895 1325.99 66.8041C1325.53 68.094 1324.47 72.3246 1322.77 72.245C1320.11 72.1213 1317.35 70.5396 1314.77 69.8097C1313.16 69.3536 1317.51 71.7614 1318.83 72.7998C1319.51 73.3318 1320.04 74.0112 1320.89 74.2024C1322.09 74.4713 1320.76 77.6857 1320.6 78.102C1319.12 82.0664 1318.26 85.8367 1317.73 90.0317C1317.62 90.9332 1316.88 93.5721 1318.13 91.9429C1319.39 90.3058 1320.77 88.8382 1321.85 87.057C1322.98 85.1887 1324.02 83.2491 1324.83 81.2154C1325.2 80.2668 1325.22 79.5376 1326.29 80.044C1330.36 81.9608 1334.45 83.0998 1338.94 83.5582C1339.68 83.6329 1340.41 83.6639 1341.14 83.7586C1341.42 83.7953 1342.15 84.0793 1342 83.8356C1341.22 82.6087 1338.97 81.744 1337.78 81.0921C1335.49 79.8373 1333 78.7739 1330.89 77.2234C1329.95 76.5342 1328.36 75.57 1327.21 75.3122C1326.47 75.1471 1326.89 74.4441 1327.07 73.9096" stroke="#795548" stroke-linecap="round" stroke-linejoin="round"/>
<path d="M226.812 702.989C230.932 702.577 233.273 701.137 236.159 705.049C237.52 706.895 237.886 709.306 238.931 711.348C242.31 717.955 243.295 720.375 250.099 724.104C257.55 728.188 264.748 727.539 271.326 733.652C276.685 738.633 284.541 747.07 286.454 754.45C288.29 761.535 269.738 757.53 279.959 750.607C284.428 747.581 292.088 745.595 297.305 747.834C304.105 750.753 305.225 759.442 305.225 765.741C305.225 769.21 302.149 791.372 293.503 785.39C282.743 777.946 310.945 773.747 312.829 773.743C333.413 773.698 346.178 791.714 352.748 809.239C353.538 811.347 353.699 813.444 353.699 810.665" stroke="black" stroke-linecap="round" stroke-linejoin="round"/>
<path d="M1261.62 84.6191C1261.79 85.8416 1268.48 161.051 1277.83 159.434C1279.73 159.105 1284.99 148.938 1279.53 152.371C1265.36 161.278 1274.19 210.137 1284.82 204.821C1288.32 203.072 1285.11 200.177 1281.75 202.335C1268.85 210.616 1271.44 229.9 1276.78 241.705C1284.59 258.969 1298.18 263.968 1314.57 269.434" stroke="black" stroke-linecap="round" stroke-linejoin="round"/>
<path d="M301.752 72.964C301.955 66.9953 302.94 42.1445 314.249 54.0528C318.803 58.8482 320.189 65.4077 322.94 71.1871C324.497 74.4566 323.448 63.9566 323.448 60.3354C323.448 52.834 324.651 33.1289 333.852 48.4683C337.95 55.3004 341.876 63.4945 340.576 71.6948C339.916 75.8598 338.086 75.1231 336.516 71.7583C332.757 63.6993 329.269 48.5851 336.262 41.2339C346.238 30.7473 356.323 45.4576 360.877 54.1798C361.358 55.1023 364.645 60.8805 363.351 62.1758C362.617 62.9092 362.865 60.1561 362.716 59.1297C361.775 52.6425 360.907 46.0158 360.75 39.457C360.315 21.3684 371.46 9.32316 386.252 1" stroke="black" stroke-linecap="round" stroke-linejoin="round"/>
</svg>
