<svg width="1566" height="883" viewBox="0 0 1566 883" fill="none" xmlns="http://www.w3.org/2000/svg">
<path d="M98.3603 613.216C100.652 627.395 106.466 641.455 107.593 656.038C103.432 656.969 99.443 660.189 94.269 662.943C84.3991 668.195 77.5739 672.386 69.2789 676.92C64.9697 679.275 53.9806 684.827 54 685.829C54.0194 686.832 55.9064 686.662 57.1155 686.553C60.2249 686.273 62.4233 686.099 65.077 685.829C81.3542 684.173 96.1774 680.058 110.911 673.133C114.803 671.303 114.857 673.938 116.218 677.365C119.136 684.713 122.91 691.72 126.999 698.47C130.898 704.905 135.932 710.207 140.49 716.122C145.025 722.007 142.34 712.474 141.927 709.217C140.004 694.061 136.905 680.44 131.533 666.117C130.969 664.613 127.836 653.939 130.483 652.029C133.13 650.118 135.056 648.976 137.946 646.961C143.792 642.887 158.496 634.511 152.653 636.158C143.302 638.796 133.29 644.51 123.682 644.957C117.495 645.244 113.662 629.96 112.016 625.3C107.661 612.963 104.283 599.418 97.6968 588.047C95.3082 583.923 94.8846 583.833 95.3747 588.715C96.1929 596.864 97.0542 605.135 98.3603 613.216Z" stroke="#F0AA87" stroke-linecap="round" stroke-linejoin="round"/>
<path d="M1455.27 498.519C1453.12 511.845 1446.6 525.241 1446.6 538.765C1450.51 539.64 1455.92 542.914 1459.12 545.254C1466.3 550.519 1474.8 554.13 1482.59 558.391C1486.64 560.604 1494.3 563.54 1496.93 567.706C1497.45 568.534 1494.98 567.569 1494.02 567.445C1491.53 567.123 1489.03 567.018 1486.54 566.764C1471.25 565.208 1457.32 561.34 1443.48 554.832C1439.82 553.112 1439.77 555.588 1438.49 558.809C1435.75 565.715 1432.21 572.301 1428.37 578.644C1424.7 584.693 1419.97 589.676 1415.69 595.235C1411.43 600.766 1413.95 591.806 1414.34 588.745C1416.15 574.501 1419.06 561.699 1424.11 548.238C1424.64 546.824 1427.73 536.792 1425.09 534.997C1422.45 533.201 1420.8 532.128 1418.08 530.234C1412.59 526.405 1398.78 518.533 1404.27 520.081C1413.05 522.56 1422.46 527.93 1431.48 528.35C1437.3 528.621 1440.9 514.256 1442.44 509.876C1446.53 498.281 1449.71 485.551 1455.89 474.864C1458.14 470.987 1458.54 470.903 1458.08 475.492C1457.31 483.15 1456.5 490.924 1455.27 498.519Z" stroke="#F0AA87" stroke-linecap="round" stroke-linejoin="round"/>
<path d="M114.779 181.486C115.467 185.75 117.55 190.037 117.55 194.365C116.301 194.645 115.104 195.613 113.552 196.441C110.59 198.021 108.914 198.886 106.054 200.645C104.237 201.763 101.476 203.626 101.476 203.626C101.476 203.626 102.042 203.575 102.405 203.542C103.338 203.458 103.863 203.434 104.794 203.325C110.329 202.676 114.125 201.589 118.545 199.506C119.713 198.956 119.729 199.748 120.137 200.779C121.013 202.989 122.145 205.096 123.372 207.126C124.542 209.062 126.052 210.656 127.419 212.435C128.78 214.205 127.975 211.338 127.851 210.358C127.274 205.8 126.344 201.704 124.732 197.396C124.563 196.944 123.827 195.391 124.732 194C125.309 193.113 126.133 192.606 127 192C128.754 190.774 132.822 187.89 131.069 188.386C128.263 189.179 125.259 190.898 122.377 191.032C120.52 191.119 119.37 186.522 118.877 185.12C117.57 181.41 116.556 177.336 114.58 173.916C113.864 172.676 113.737 172.649 113.884 174.117C114.129 176.568 114.388 179.056 114.779 181.486Z" stroke="#795548" stroke-linecap="round" stroke-linejoin="round"/>
<path d="M1187.13 790.753C1185.14 796.647 1184.91 803.507 1182 809.019C1180.22 808.537 1178.05 808.966 1175.51 808.977C1170.68 808.998 1167.96 808.972 1163.14 809.29C1160.07 809.492 1155.3 810.009 1155.3 810.009C1155.3 810.009 1156.06 810.325 1156.54 810.527C1157.79 811.046 1158.47 811.369 1159.73 811.855C1167.22 814.75 1172.78 815.918 1179.81 816.237C1181.67 816.321 1181.16 817.342 1180.99 818.929C1180.61 822.332 1180.64 825.778 1180.84 829.188C1181.03 832.44 1181.88 835.486 1182.42 838.671C1182.97 841.841 1183.87 837.647 1184.37 836.316C1186.7 830.123 1188.27 824.28 1189.11 817.709C1189.2 817.019 1189.31 814.547 1191.4 813.384C1192.73 812.642 1194.12 812.55 1195.63 812.361C1198.69 811.979 1205.81 811.041 1203.24 810.493C1199.13 809.617 1194.15 809.787 1190.39 808.02C1187.97 806.882 1189.59 800.254 1189.91 798.137C1190.74 792.532 1192.19 786.662 1191.97 780.978C1191.89 778.916 1191.75 778.796 1190.95 780.765C1189.61 784.052 1188.27 787.394 1187.13 790.753Z" stroke="#B39681" stroke-linecap="round" stroke-linejoin="round"/>
<path d="M1442.41 68.4861C1441.72 72.7503 1440 76.6723 1440 81C1441.25 81.2801 1442.62 82.6925 1443.64 83.4414C1445.93 85.1261 1448.64 86.2816 1451.13 87.645C1452.43 88.3533 1454.87 89.2929 1455.71 90.626C1455.88 90.8908 1455.09 90.5822 1454.78 90.5423C1453.99 90.4395 1453.19 90.4058 1452.39 90.3246C1447.51 89.8265 1443.06 88.5889 1438.64 86.5062C1437.47 85.9559 1437.46 86.7482 1437.05 87.779C1436.17 89.9887 1435.04 92.0962 1433.82 94.1262C1432.65 96.0616 1431.14 97.6562 1429.77 99.4351C1428.41 101.205 1429.21 98.338 1429.34 97.3584C1429.91 92.8003 1430.84 88.7036 1432.46 84.396C1432.62 83.9437 1434 81 1432.77 80.159C1432 79.5 1431.4 79.2408 1430.53 78.635C1428.78 77.4094 1424.37 74.8904 1426.12 75.386C1428.92 76.1791 1431.93 77.8977 1434.81 78.0321C1436.67 78.1186 1437.82 73.5218 1438.31 72.1203C1439.62 68.4101 1440.63 64.3362 1442.61 60.9163C1443.32 59.676 1443.45 59.649 1443.3 61.1173C1443.06 63.5681 1442.8 66.0557 1442.41 68.4861Z" stroke="#795548" stroke-linecap="round" stroke-linejoin="round"/>
<path d="M243.578 763.373C248.056 762.925 250.601 761.361 253.737 765.611C255.217 767.617 255.615 770.236 256.75 772.455C260.423 779.635 261.494 782.264 268.889 786.316C276.988 790.753 284.812 790.048 291.961 796.69C297.787 802.102 306.325 811.269 308.405 819.289C310.4 826.987 290.235 822.636 301.345 815.113C306.203 811.824 314.529 809.667 320.199 812.1C327.591 815.272 328.808 824.712 328.808 831.557C328.808 835.326 325.464 859.406 316.067 852.907C304.371 844.819 335.025 840.256 337.073 840.252C359.446 840.202 373.321 859.778 380.462 878.82C381.321 881.111 381.495 883.389 381.495 880.37" stroke="black" stroke-linecap="round" stroke-linejoin="round"/>
<path d="M1368.34 91.4775C1368.53 92.8058 1375.8 174.525 1385.97 172.769C1388.04 172.411 1393.75 161.363 1387.81 165.094C1372.42 174.772 1382.02 227.86 1393.57 222.084C1397.37 220.183 1393.89 217.038 1390.23 219.383C1376.21 228.38 1379.03 249.334 1384.83 262.161C1393.31 280.92 1408.09 286.351 1425.9 292.29" stroke="black" stroke-linecap="round" stroke-linejoin="round"/>
<path d="M325.035 78.8133C325.256 72.328 326.327 45.3261 338.619 58.2652C343.569 63.4757 345.075 70.6029 348.066 76.8827C349.757 80.4351 348.617 69.0263 348.617 65.0916C348.617 56.9409 349.926 35.5301 359.926 52.1973C364.38 59.6208 368.648 68.5241 367.235 77.4343C366.517 81.9598 364.528 81.1594 362.822 77.5032C358.735 68.7467 354.945 52.3242 362.546 44.3366C373.389 32.9423 384.351 48.926 389.3 58.4031C389.823 59.4055 393.397 65.6839 391.989 67.0913C391.192 67.8881 391.462 64.8967 391.3 63.7815C390.276 56.7328 389.333 49.5325 389.162 42.4059C388.69 22.7516 400.804 9.66373 416.881 0.620117" stroke="black" stroke-linecap="round" stroke-linejoin="round"/>
<path d="M25.8183 420.807C25.1383 415.658 22.9924 412.67 18.2821 411.007C12.3553 408.915 4.80673 412.523 2.14015 418.369C-2.75531 429.102 9.29801 440.102 15.8695 446.674C20.9929 451.797 25.8184 457.4 31.0912 462.343C37.4145 468.271 44.445 450.894 46.4621 447.569C52.5259 437.574 56.9175 424.715 56.7093 412.848C56.5958 406.376 48.7474 401.856 42.8308 402.004C35.5546 402.185 31.106 414.067 29.8476 420.359" stroke="#B39681" stroke-linecap="round"/>
<path d="M1528.21 315.892C1530.2 311.093 1529.84 307.432 1526.59 303.637C1522.5 298.862 1514.16 298.212 1508.93 301.942C1499.32 308.788 1504.26 324.342 1506.66 333.319C1508.54 340.317 1509.92 347.582 1512.01 354.499C1514.52 362.795 1529.3 351.261 1532.71 349.39C1542.96 343.766 1553.19 334.825 1558.95 324.444C1562.08 318.783 1557.55 310.944 1552.35 308.114C1545.96 304.633 1536.16 312.698 1531.93 317.519" stroke="#B39681" stroke-linecap="round"/>
<path d="M1243.92 84.6696C1244.93 82.2165 1244.75 80.3449 1243.09 78.4049C1241 75.964 1236.73 75.6318 1234.06 77.5384C1229.15 81.0384 1231.67 88.9894 1232.9 93.5783C1233.86 97.1561 1234.56 100.87 1235.63 104.406C1236.92 108.647 1244.47 102.751 1246.22 101.794C1251.45 98.9191 1256.69 94.3487 1259.63 89.0418C1261.23 86.1478 1258.91 82.1404 1256.25 80.6936C1252.99 78.9143 1247.98 83.0373 1245.81 85.5013" stroke="#F0AA87" stroke-linecap="round"/>
<path d="M1361.49 744.67C1360.47 742.216 1360.66 740.345 1362.32 738.405C1364.41 735.964 1368.67 735.632 1371.35 737.538C1376.26 741.038 1373.73 748.989 1372.5 753.578C1371.54 757.156 1370.84 760.87 1369.77 764.406C1368.48 768.647 1360.93 762.751 1359.19 761.794C1353.95 758.919 1348.72 754.349 1345.78 749.042C1344.17 746.148 1346.49 742.14 1349.15 740.694C1352.42 738.914 1357.42 743.037 1359.59 745.501" stroke="#795548" stroke-linecap="round"/>
</svg>
