<svg width="375" height="819" viewBox="0 0 375 819" fill="none" xmlns="http://www.w3.org/2000/svg">
<path d="M54.5768 18.5616C59.0688 15.3689 63.6047 11.6384 68.4193 8.89094C68.9874 8.56676 67.8145 10.0635 67.3872 10.5583C65.9942 12.1709 63.9947 13.8188 63.4712 15.9847C62.9096 18.3085 62.9422 20.5269 64.1087 22.6238C64.4841 23.2986 63.6455 23.559 63.1069 23.6849C61.5083 24.0585 60.2865 24.6887 59.2213 25.9888C58.4725 26.9028 57.4058 32.012 55.7911 30.6574C54.7821 29.811 54.0014 28.6778 52.9376 27.8987C51.6656 26.9672 49.7315 26.7249 48.2627 26.201C46.9639 25.7378 47.4088 23.5067 47.2913 22.4722C47.0505 20.3517 46.3106 18.396 46.0467 16.2879C45.9242 15.3095 44.8024 13.3951 46.5172 14.0294C48.4017 14.7264 50.0668 15.8227 51.9662 16.5001C53.2549 16.9598 54.1777 18.163 55.1232 19.1072" stroke="#B39681" stroke-linecap="round" stroke-linejoin="round"/>
<path d="M24.6507 549.264C24.6507 544.828 23.2682 541.069 22.5567 536.698C22.1512 534.207 21.8839 531.657 21.6299 529.145C21.4777 527.64 21.6092 527.668 22.3508 528.939C24.3953 532.445 25.4442 536.62 26.7962 540.423C27.3069 541.86 28.4969 546.572 30.4178 546.483C33.4005 546.345 36.5085 544.584 39.4116 543.771C41.2255 543.263 36.3329 545.944 34.846 547.101C34.0844 547.693 33.4871 548.45 32.5289 548.663C31.1816 548.962 32.6799 552.542 32.855 553.006C34.5228 557.421 35.4847 561.62 36.0818 566.292C36.2101 567.296 37.0436 570.235 35.6356 568.421C34.2206 566.598 32.6579 564.963 31.4476 562.979C30.1781 560.899 29.0065 558.738 28.1006 556.473C27.6781 555.417 27.6614 554.605 26.4529 555.169C21.8791 557.304 17.2773 558.572 12.2241 559.083C11.4003 559.166 10.5745 559.2 9.75251 559.306C9.43345 559.347 8.61864 559.663 8.79133 559.392C9.6608 558.025 12.1908 557.062 13.5286 556.336C16.1037 554.939 18.9125 553.754 21.2866 552.027C22.342 551.26 24.1313 550.186 25.4231 549.899C26.2504 549.715 25.776 548.932 25.5776 548.337" stroke="#F0AA87" stroke-linecap="round" stroke-linejoin="round"/>
<path d="M245.178 15.9181C245.178 14.4749 244.731 13.252 244.502 11.8299C244.371 11.0195 244.285 10.1899 244.203 9.3726C244.154 8.88294 244.196 8.89194 244.435 9.30558C245.095 10.446 245.434 11.8046 245.87 13.0419C246.035 13.5093 246.419 15.0422 247.039 15.0133C248.001 14.9685 249.004 14.3954 249.941 14.1309C250.527 13.9657 248.948 14.8381 248.468 15.2144C248.222 15.4071 248.029 15.6533 247.72 15.7226C247.285 15.82 247.769 16.9847 247.825 17.1356C248.364 18.5721 248.674 19.9382 248.867 21.4583C248.908 21.7849 249.177 22.7411 248.723 22.1508C248.266 21.5576 247.762 21.0258 247.371 20.3804C246.961 19.7034 246.583 19.0006 246.291 18.2637C246.155 17.92 246.149 17.6558 245.759 17.8393C244.283 18.5338 242.798 18.9465 241.167 19.1126C240.901 19.1397 240.635 19.1509 240.37 19.1852C240.267 19.1985 240.004 19.3015 240.059 19.2132C240.34 18.7686 241.157 18.4552 241.588 18.219C242.419 17.7644 243.326 17.3791 244.092 16.8172C244.433 16.5675 245.01 16.2181 245.427 16.1247C245.694 16.0649 245.541 15.8102 245.477 15.6165" stroke="#795548" stroke-linecap="round" stroke-linejoin="round"/>
<path d="M16.5605 701.217C18.0556 701.068 18.9056 700.546 19.9528 701.964C20.447 702.633 20.5799 703.506 20.959 704.246C22.1856 706.64 22.543 707.517 25.0125 708.869C27.7169 710.348 30.3296 710.113 32.717 712.328C34.6624 714.133 37.5137 717.19 38.2079 719.864C38.8744 722.431 32.1407 720.98 35.8506 718.472C37.4727 717.375 40.2529 716.656 42.1464 717.467C44.6147 718.525 45.0213 721.673 45.0213 723.955C45.0213 725.212 43.9046 733.243 40.7665 731.075C36.861 728.378 47.0973 726.857 47.7811 726.855C55.2523 726.839 59.8856 733.367 62.2702 739.717C62.557 740.481 62.6152 741.24 62.6152 740.234" stroke="black" stroke-linecap="round" stroke-linejoin="round"/>
<path d="M0 183.076C0.073829 180.913 0.431321 171.909 4.53605 176.223C6.18897 177.961 6.69198 180.338 7.69055 182.432C8.25544 183.617 7.87476 179.812 7.87476 178.5C7.87476 175.782 8.31156 168.642 11.651 174.2C13.1383 176.676 14.5634 179.645 14.0917 182.616C13.8521 184.125 13.1878 183.858 12.618 182.639C11.2535 179.719 9.9877 174.242 12.5259 171.579C16.1467 167.779 19.8072 173.109 21.4599 176.269C21.6347 176.604 22.8278 178.697 22.3579 179.167C22.0918 179.433 22.1817 178.435 22.1276 178.063C21.7859 175.712 21.471 173.311 21.4138 170.935C21.256 164.38 25.3013 160.016 30.6701 157" stroke="black" stroke-linecap="round" stroke-linejoin="round"/>
<path d="M365.324 217.918C365.324 216.475 365.771 215.252 366 213.83C366.131 213.019 366.217 212.19 366.299 211.373C366.348 210.883 366.306 210.892 366.067 211.306C365.407 212.446 365.068 213.805 364.632 215.042C364.467 215.509 364.083 217.042 363.463 217.013C362.501 216.969 361.498 216.395 360.561 216.131C359.975 215.966 361.554 216.838 362.034 217.214C362.28 217.407 362.473 217.653 362.782 217.723C363.217 217.82 362.733 218.985 362.677 219.136C362.138 220.572 361.828 221.938 361.635 223.458C361.594 223.785 361.325 224.741 361.779 224.151C362.236 223.558 362.74 223.026 363.131 222.38C363.541 221.703 363.919 221.001 364.211 220.264C364.347 219.92 364.353 219.656 364.743 219.839C366.219 220.534 367.704 220.947 369.335 221.113C369.601 221.14 369.867 221.151 370.132 221.185C370.235 221.199 370.498 221.301 370.443 221.213C370.162 220.769 369.345 220.455 368.914 220.219C368.083 219.764 367.176 219.379 366.41 218.817C366.069 218.567 365.492 218.218 365.075 218.125C364.808 218.065 364.961 217.81 365.025 217.616" stroke="#795548" stroke-linecap="round" stroke-linejoin="round"/>
<path d="M362.932 422.562C358.44 419.369 353.904 415.638 349.089 412.891C348.521 412.567 349.694 414.064 350.122 414.558C351.515 416.171 353.514 417.819 354.038 419.985C354.599 422.308 354.567 424.527 353.4 426.624C353.025 427.299 353.863 427.559 354.402 427.685C356.001 428.059 357.222 428.689 358.287 429.989C359.036 430.903 360.103 436.012 361.718 434.657C362.727 433.811 363.507 432.678 364.571 431.899C365.843 430.967 367.777 430.725 369.246 430.201C370.545 429.738 370.1 427.507 370.217 426.472C370.458 424.352 371.198 422.396 371.462 420.288C371.585 419.309 372.706 417.395 370.992 418.029C369.107 418.726 367.442 419.823 365.543 420.5C364.254 420.96 363.331 422.163 362.386 423.107" stroke="#B39681" stroke-linecap="round" stroke-linejoin="round"/>
<path d="M239.461 788.358C241.318 783.138 244.52 779.293 247.188 774.447C248.708 771.685 250.09 768.796 251.441 765.947C252.25 764.239 252.084 764.217 250.678 765.403C246.801 768.673 243.817 773.148 240.632 777.058C239.429 778.535 236.055 783.582 233.829 782.675C230.371 781.266 227.446 777.894 224.365 775.724C222.44 774.368 227.083 779.569 228.351 781.551C229.001 782.567 229.388 783.707 230.428 784.358C231.891 785.274 228.627 788.86 228.226 789.332C224.413 793.831 221.522 798.37 218.863 803.618C218.292 804.746 216.079 807.856 218.498 806.31C220.929 804.756 223.454 803.485 225.711 801.657C228.078 799.739 230.363 797.687 232.378 795.4C233.318 794.334 233.678 793.385 234.866 794.554C239.363 798.978 244.255 802.394 249.996 805.107C250.932 805.549 251.891 805.935 252.816 806.403C253.174 806.584 254.002 807.297 253.912 806.905C253.46 804.934 250.881 802.743 249.608 801.33C247.159 798.609 244.344 796.041 242.269 793.017C241.346 791.672 239.687 789.661 238.285 788.783C237.387 788.221 238.274 787.498 238.757 786.88" stroke="#F0AA87" stroke-linecap="round" stroke-linejoin="round"/>
<path d="M358.27 668.269C358.124 668.691 347.873 693.952 351.14 695.061C351.805 695.287 355.168 692.944 352.85 693.094C346.836 693.482 341.615 710.674 345.903 710.82C347.313 710.868 346.762 709.383 345.327 709.489C339.82 709.897 337.475 716.527 337.242 721.238C336.901 728.128 340.439 732.095 344.798 736.698" stroke="black" stroke-linecap="round" stroke-linejoin="round"/>
</svg>
