<svg width="100" height="46" viewBox="0 0 100 46" fill="none" xmlns="http://www.w3.org/2000/svg">
<g clip-path="url(#clip0)">
<path d="M97.4941 40.1997C97.873 40.1547 98.2544 40.1326 98.636 40.1334C98.8162 39.8728 98.9148 39.5655 98.9193 39.2499C98.9238 38.9343 98.8341 38.6244 98.6614 38.3589C98.4887 38.0934 98.2406 37.884 97.9482 37.757C97.6558 37.6299 97.3319 37.5908 97.0171 37.6445C92.8591 38.7263 89.1579 41.2616 89.3796 45.6088C89.3796 45.9074 90.011 45.9539 90.011 45.9539C90.6827 42.4762 94.169 40.5581 97.4941 40.1997Z" fill="#721919"/>
<path fill-rule="evenodd" clip-rule="evenodd" d="M91.8986 11.8269C91.415 11.8269 90.9649 11.953 90.891 12.2715C89.7088 20.3486 87.1629 23.1493 85.9068 23.5542C85.2351 23.7732 84.7178 23.5077 84.8253 22.406C85.1276 19.4128 86.7935 12.8821 86.9211 12.3114C87.1025 11.4419 82.4071 11.3623 82.1854 13.2737C81.9705 15.0192 81.5876 17.289 81.5137 17.7005C81.5064 17.7421 81.4928 17.7823 81.4734 17.8199C80.8017 19.0212 79.3172 21.5366 78.0275 22.4657C77.7185 22.6914 76.684 23.083 76.684 21.802C76.684 20.2822 77.92 17.508 78.2021 15.8289C78.6119 13.3799 76.2541 11.6875 74.0844 11.8468C72.2708 11.9862 70.5041 14.0436 68.9994 16.5855C69.0532 16.2868 69.1069 15.9882 69.1539 15.6895C69.5637 13.2339 67.6291 11.6609 65.4594 11.8269C63.6122 11.9729 61.812 14.1099 60.2871 16.7182C60.5693 15.7492 60.8447 14.7869 61.0999 13.8511C61.3955 12.7428 58.8362 11.9596 57.0696 11.807C56.846 11.7907 56.6214 11.7907 56.3978 11.807C56.3094 11.8105 56.225 11.8441 56.1589 11.9022C56.0927 11.9603 56.049 12.0392 56.0351 12.1255C55.6858 14.3688 55.229 17.3421 55.1686 17.7536C55.1716 17.7845 55.1716 17.8156 55.1686 17.8465C54.1946 19.7181 51.8099 23.4613 50.4665 22.5653C49.123 21.6693 51.5614 17.6275 52.1861 15.4439C52.6899 13.6653 50.6277 12.8888 49.8485 12.7162C49.0693 12.5436 45.4487 11.7273 45.5562 11.2826C45.8047 7.40009 41.0959 7.02179 40.4376 9.9951C39.9405 12.2583 41.4519 13.2272 43.0842 13.8113C43.1818 13.8473 43.2615 13.9192 43.3066 14.012C43.3517 14.1048 43.3587 14.2113 43.326 14.309C41.6467 19.4061 39.1748 22.1804 38.456 22.4856C38.1806 22.6051 37.5089 22.917 37.2469 22.406C36.6827 21.2777 38.812 15.7293 38.8859 15.0325C39.1076 12.975 36.7364 12.7428 35.3526 12.8556C35.3032 12.8602 35.2534 12.855 35.206 12.8401C35.1587 12.8253 35.1149 12.8012 35.0772 12.7693C33.3106 11.3357 27.4195 10.5791 25.4514 16.5058C25.0513 17.5831 24.7501 18.6937 24.5513 19.8243C24.5545 19.8396 24.5545 19.8554 24.5513 19.8707C23.94 22.3529 22.3749 23.1161 21.3673 22.771C20.0574 22.3264 21.421 16.8443 16.457 15.9019C16.374 15.8855 16.2983 15.8436 16.2408 15.7823C16.1832 15.721 16.1466 15.6434 16.1362 15.5604C16.1258 15.4774 16.1421 15.3933 16.1828 15.32C16.2235 15.2467 16.2865 15.1879 16.3629 15.1519C22.2137 12.4972 22.6839 8.56154 22.8652 5.54177C22.8818 5.47511 22.9207 5.41593 22.9756 5.37378C23.0304 5.33163 23.098 5.30898 23.1675 5.30948C23.2892 5.29599 23.4048 5.24992 23.5019 5.17622C23.5989 5.10253 23.6738 5.00403 23.7183 4.89136C24.1041 3.90918 24.1996 2.83894 23.9937 1.80522C23.7452 0.723417 22.4823 0 20.8232 0C18.3647 0 17.0011 1.63267 17.2227 3.70336C17.4981 6.3581 16.7256 11.9065 12.6886 14.0502C12.622 14.085 12.5471 14.101 12.472 14.0965C12.3968 14.092 12.3244 14.0671 12.2627 14.0246C12.2009 13.9821 12.1522 13.9236 12.1218 13.8555C12.0915 13.7874 12.0808 13.7124 12.0907 13.6387C12.7625 9.29159 13.058 5.84706 13.273 1.93132C13.3469 0.603953 12.8767 -0.0597316 11.6407 0.00663685C9.97366 0.120837 8.33833 0.513555 6.80424 1.16809C6.6194 1.23836 6.46689 1.37291 6.37536 1.54644C6.28383 1.71998 6.25958 1.92056 6.30716 2.11052C6.77737 4.10157 6.81768 8.65445 6.27358 14.3555L5.92428 14.7272C4.13077 15.0524 3.9091 17.2226 5.56826 17.6407C5.66054 17.6683 5.73975 17.7277 5.79151 17.8081C5.84328 17.8885 5.86417 17.9845 5.85039 18.0788C5.50781 20.7335 5.04432 23.5475 4.44648 26.3948C4.19122 27.6226 8.47684 27.2509 9.88747 27.2708C10.5592 23.4679 11.0764 20.3486 11.513 17.6009C11.5232 17.5422 11.5468 17.4866 11.582 17.4383C11.6173 17.3899 11.6632 17.3502 11.7163 17.322C11.7694 17.2939 11.8283 17.2781 11.8885 17.2758C11.9488 17.2735 12.0087 17.2848 12.0639 17.3089C14.9523 18.5566 13.7029 23.1759 14.959 25.6514C15.5971 26.9191 16.4167 27.3305 18.9558 27.3305C20.8366 27.3305 23.2951 26.3748 24.2557 23.0498C24.1751 25.8107 25.2834 26.5739 26.3918 27.0319C27.3794 27.3529 28.4401 27.3839 29.4452 27.1212C30.4503 26.8585 31.3566 26.3133 32.0545 25.5519C32.0965 25.4992 32.1516 25.458 32.2143 25.4324C32.2771 25.4067 32.3455 25.3975 32.4129 25.4055C32.4804 25.4135 32.5446 25.4385 32.5995 25.478C32.6543 25.5176 32.698 25.5705 32.7262 25.6315C32.9862 26.1336 33.3817 26.555 33.8689 26.8489C34.3561 27.1429 34.9161 27.2981 35.487 27.2974C36.3804 27.2974 40.8944 27.7487 44.6896 14.6873C44.7042 14.6358 44.7292 14.5878 44.763 14.546C44.7968 14.5042 44.8388 14.4696 44.8864 14.4442C44.9341 14.4188 44.9864 14.4031 45.0403 14.3982C45.0942 14.3932 45.1486 14.399 45.2002 14.4152C46.3287 14.7537 47.081 15.0789 46.8392 15.9152V15.8554C46.0062 17.8465 44.5822 21.7357 44.9449 24.4037C45.0171 25.0003 45.2469 25.5677 45.6112 26.0488C45.9755 26.53 46.4616 26.9079 47.0205 27.1447C49.6403 28.0141 52.166 25.1072 53.5967 23.0166C53.6456 22.9381 53.721 22.8791 53.8096 22.8501C53.8981 22.8211 53.9942 22.8239 54.0809 22.858C54.1676 22.8921 54.2393 22.9553 54.2834 23.0365C54.3276 23.1177 54.3413 23.2117 54.3222 23.302C53.9125 25.751 55.8672 27.4965 58.4735 27.2841C61.3552 17.8 63.6189 15.2648 64.4854 15.1519C64.5162 15.1438 64.5487 15.1438 64.5795 15.1519C64.6305 15.1599 64.6791 15.1788 64.7219 15.2072C64.7648 15.2356 64.8009 15.2729 64.8277 15.3164C64.8546 15.36 64.8715 15.4088 64.8773 15.4595C64.8832 15.5101 64.8778 15.5615 64.8616 15.6099C63.7091 18.3737 63.0785 21.3226 63.0009 24.3108C62.9203 26.6536 63.8943 27.4898 67.0313 27.2575C69.7921 18.1783 72.0021 15.4174 72.9358 15.1586C73.0044 15.1444 73.0753 15.1444 73.144 15.1586C73.2252 15.1811 73.297 15.2287 73.3489 15.2943C73.4009 15.36 73.4303 15.4403 73.4328 15.5236C73.4331 15.5792 73.4193 15.634 73.3925 15.6829C72.2088 18.412 71.5724 21.3421 71.5184 24.3108C71.5184 26.0032 72.5999 27.3637 74.2792 27.3637C75.9585 27.3637 78.7193 25.751 80.9293 21.5631C80.8823 21.9016 80.8353 22.2666 80.7882 22.6516C80.3651 25.97 82.3332 27.5761 84.4559 27.3438C85.8915 27.1221 87.1793 26.3463 88.0362 25.1868C86.2158 32.2883 85.8128 40.1861 87.8548 45.0974C88.0843 45.4404 88.4119 45.7081 88.7959 45.8665C89.1799 46.0249 89.6029 46.0667 90.0111 45.9867C89.9708 45.323 90.0111 45.0045 90.0111 44.4868C89.7961 35.4275 90.9918 28.0009 95.7476 13.8378C96.0902 12.7494 94.1153 11.7738 91.8986 11.8269ZM29.8646 23.5343C27.3927 23.5343 29.1929 12.2118 33.6532 14.1829C33.725 14.2139 33.7862 14.265 33.8292 14.3298C33.8721 14.3947 33.895 14.4705 33.895 14.548C33.8681 17.0302 33.3979 23.5675 29.8646 23.5343Z" fill="#1D1D1B"/>
<path fill-rule="evenodd" clip-rule="evenodd" d="M0.254669 30.1311C-0.48423 33.3035 0.462905 36.9073 2.01459 38.4338C5.03737 41.3806 52.9718 33.2836 76.7174 34.0269C89.4802 34.4251 94.854 35.8388 97.0908 37.2193C97.7088 37.5909 98.0581 37.7635 97.991 38.3542C97.9594 39.0056 98.1859 39.6436 98.6224 40.1328C103.096 36.3233 94.1016 31.5049 84.0257 30.6687C46.6105 27.4896 8.51019 37.571 0.254669 30.1311Z" fill="#721919"/>
<path d="M97.4873 13.0479C97.4891 12.887 97.523 12.728 97.5871 12.58C97.6513 12.4321 97.7444 12.2982 97.8612 12.1859C97.9779 12.0736 98.1159 11.9853 98.2674 11.9259C98.4188 11.8666 98.5806 11.8374 98.7434 11.84C99.0659 11.84 99.3751 11.9666 99.6032 12.1919C99.8312 12.4171 99.9593 12.7227 99.9593 13.0413C99.9593 13.3599 99.8312 13.6654 99.6032 13.8907C99.3751 14.116 99.0659 14.2425 98.7434 14.2425C98.5814 14.2461 98.4203 14.2179 98.2694 14.1597C98.1185 14.1015 97.9807 14.0144 97.8639 13.9033C97.7472 13.7923 97.6538 13.6596 97.5892 13.5128C97.5245 13.366 97.4899 13.208 97.4873 13.0479ZM99.7577 13.0479C99.7617 12.8486 99.7055 12.6527 99.5962 12.4851C99.4869 12.3176 99.3296 12.186 99.1442 12.1073C98.9589 12.0286 98.754 12.0063 98.5557 12.0432C98.3575 12.0801 98.1749 12.1746 98.0312 12.3146C97.8876 12.4546 97.7895 12.6338 97.7495 12.8291C97.7095 13.0245 97.7293 13.2272 97.8065 13.4114C97.8837 13.5956 98.0147 13.7528 98.1828 13.863C98.3509 13.9733 98.5484 14.0314 98.7502 14.0302C98.8834 14.0357 99.0164 14.014 99.1407 13.9664C99.2651 13.9188 99.3781 13.8462 99.4728 13.7534C99.5674 13.6605 99.6415 13.5493 99.6906 13.4268C99.7396 13.3042 99.7625 13.173 99.7577 13.0413V13.0479ZM98.7434 12.4373C99.0793 12.4373 99.2472 12.5634 99.2472 12.8223C99.2518 12.887 99.2362 12.9515 99.2026 13.0073C99.169 13.063 99.1189 13.1073 99.0592 13.1342L99.3211 13.612H98.9047L98.6964 13.2138H98.6427V13.612H98.2464V12.4373H98.7434ZM98.8643 12.8488C98.8643 12.7758 98.8173 12.736 98.7233 12.736H98.6427V12.9683H98.7434C98.8442 12.9683 98.8912 12.9351 98.8912 12.8488H98.8643Z" fill="#1D1D1B"/>
</g>
<defs>
<clipPath id="clip0">
<rect width="100" height="46" fill="white"/>
</clipPath>
</defs>
</svg>
