<svg width="383" height="88" viewBox="0 0 383 88" fill="none" xmlns="http://www.w3.org/2000/svg">
<path d="M6.15857 14.8347L12.7523 5.01755L19.3718 9.46354L12.7781 19.2807L13.4654 19.7424L20.4907 9.28268L12.4965 3.91336L5.47122 14.3731L6.15857 14.8347Z" fill="black"/>
<path d="M18.1241 20.7986C17.8996 19.8184 18.0608 18.8625 18.6137 17.9558C19.1666 17.0491 19.9425 16.4681 20.9168 16.2189C21.9063 15.979 22.8468 16.1308 23.7535 16.6837C24.6602 17.2366 25.2259 18.0031 25.4504 18.9834C25.6903 19.9729 25.5291 20.9288 24.9762 21.8355C24.4233 22.7422 23.6473 23.3232 22.6578 23.5631C21.6929 23.797 20.7525 23.6451 19.8457 23.0922C18.939 22.5393 18.3734 21.7728 18.1241 20.7986ZM22.9333 24.3214C24.1147 24.0088 25.0365 23.327 25.6831 22.2666C26.3297 21.2062 26.5138 20.0745 26.2506 18.881C25.9875 17.6875 25.2997 16.7411 24.1471 16.0382C22.9945 15.3354 21.8228 15.148 20.6413 15.4606C19.4598 15.7732 18.5534 16.4643 17.9068 17.5247C17.2602 18.5851 17.0607 19.7074 17.3239 20.9009C17.587 22.0944 18.2995 23.0349 19.4521 23.7377C20.6048 24.4405 21.7518 24.634 22.9333 24.3214Z" fill="black"/>
<path d="M27.0274 28.0204L30.6198 21.5121L31.7954 26.8692L32.0633 27.0171L37.2385 25.1654L33.6461 31.6738L34.3552 32.0652L38.5043 24.5482L37.8267 24.1742L32.3983 26.1123L31.145 20.4861L30.4674 20.1121L26.3183 27.629L27.0274 28.0204Z" fill="black"/>
<path d="M41.7379 36.0944C42.8498 36.6479 43.8161 36.8474 44.6611 36.6848L45.014 35.9758C44.0482 36.0983 43.09 35.9229 42.1715 35.4658C41.1402 34.9524 40.4385 34.2212 40.0746 33.2961C39.7107 32.371 39.7653 31.413 40.2304 30.4381L46.8695 33.7426L46.9898 33.5009C47.4069 32.663 47.5822 31.7047 47.4756 30.6262C47.3932 29.5397 46.6748 28.4784 45.3857 27.8367C44.2577 27.2753 43.1467 27.2048 42.0526 27.6254C40.9666 28.0299 40.1309 28.8203 39.5534 29.9805C38.9679 31.1568 38.8895 32.3242 39.3021 33.4746C39.7147 34.625 40.5293 35.4929 41.7379 36.0944ZM40.5593 29.8177C40.9766 29.1005 41.6116 28.5922 42.4241 28.2929C43.2608 27.9855 44.1303 28.0563 45.0327 28.5055C47.0953 29.5322 47.0106 31.6414 46.4571 32.7533L40.5593 29.8177Z" fill="black"/>
<path d="M56.8518 33.2638C55.4549 32.6398 54.1517 32.6886 52.9094 33.3954L53.5261 32.0148L52.7865 31.6845L47.8165 42.8109L48.5561 43.1413L50.6483 38.4573C50.9436 39.8706 51.7934 40.8811 53.1739 41.4977C54.3572 42.0263 55.494 42.0412 56.5933 41.5662C57.6926 41.0913 58.5037 40.2904 59.0102 39.1564C59.5168 38.0224 59.5646 36.9004 59.1847 35.7647C58.8048 34.629 58.0351 33.7924 56.8518 33.2638ZM56.412 33.8953C57.3817 34.3285 58.0237 35.0095 58.3711 35.9532C58.7257 36.8805 58.6874 37.8491 58.2542 38.8187C57.8211 39.7884 57.1254 40.4633 56.1908 40.8344C55.2561 41.2055 54.3204 41.1818 53.3508 40.7487C52.0195 40.1541 51.1375 38.7744 51.1182 37.4055L52.4396 34.4472C53.4556 33.5408 55.0479 33.286 56.412 33.8953Z" fill="black"/>
<path d="M59.848 44.0815L63.5955 41.9977L66.5518 43.2788L65.1992 46.4003L65.9424 46.7223L69.3562 38.8442L65.3758 37.1194C63.6417 36.3679 62.2593 36.8871 61.6581 38.2744C61.0856 39.5957 61.499 40.8146 62.8456 41.5551L58.9561 43.695L59.848 44.0815ZM63.7072 41.2418C62.4024 40.6764 61.9383 39.7102 62.3964 38.6532C62.8616 37.5797 63.8767 37.2741 65.1815 37.8395L68.3196 39.1993L66.8453 42.6016L63.7072 41.2418Z" fill="black"/>
<path d="M69.9723 49.0561L78.5128 44.7353L75.6108 51.4816L76.3548 51.8017L79.7477 43.9145L79.0698 43.6229L70.5056 47.9531L73.4148 41.1903L72.6707 40.8702L69.2779 48.7574L69.9723 49.0561ZM76.7688 41.0459C77.4798 41.3518 78.1841 41.4 78.8557 41.1598C79.5272 40.9196 80.0171 40.4641 80.3087 39.7862L79.6308 39.4946C79.204 40.4867 78.147 40.8941 77.0391 40.4176C75.8982 39.9268 75.4671 38.8792 75.8939 37.8871L75.2159 37.5954C74.6184 38.9844 75.2311 40.3844 76.7688 41.0459Z" fill="black"/>
<path d="M82.9641 53.7993L85.4114 46.3426L88.524 47.3642L88.7542 46.663L81.7593 44.3673L81.5291 45.0685L84.6418 46.09L82.1945 53.5467L82.9641 53.7993Z" fill="black"/>
<path d="M90.6267 56.1594C91.7759 56.6303 92.7542 56.7588 93.5851 56.5352L93.8854 55.8023C92.9311 55.9949 91.9626 55.8898 91.0132 55.5008C89.9472 55.064 89.1941 54.3858 88.7638 53.4898C88.3334 52.5937 88.318 51.6342 88.7108 50.628L95.5731 53.4398L95.6755 53.19C96.0304 52.3239 96.1354 51.3554 95.9505 50.2875C95.789 49.2098 94.9952 48.2037 93.6628 47.6578C92.4968 47.18 91.3836 47.1908 90.3232 47.69C89.2696 48.1725 88.4937 49.0217 88.0023 50.221C87.5041 51.4369 87.511 52.6068 88.0064 53.7241C88.5018 54.8413 89.3775 55.6476 90.6267 56.1594ZM88.9937 49.9853C89.3576 49.2396 89.9538 48.6863 90.7424 48.3286C91.5544 47.961 92.4267 47.9683 93.3595 48.3505C95.4914 49.2241 95.5607 51.3338 95.0898 52.4831L88.9937 49.9853Z" fill="black"/>
<path d="M101.29 59.4284C102.353 59.7032 103.305 59.6889 104.163 59.3901L104.366 58.6058C103.481 58.935 102.56 58.9757 101.584 58.7235C100.538 58.4533 99.7569 57.8796 99.218 57.0152C98.7011 56.138 98.5777 55.1765 98.8434 54.1483C99.1091 53.1201 99.6829 52.3388 100.56 51.8218C101.455 51.3094 102.416 51.186 103.462 51.4563C104.298 51.6724 105.042 52.1062 105.709 52.7619L105.907 51.9951C105.27 51.3658 104.488 50.9405 103.564 50.7018C102.292 50.373 101.121 50.5165 100.081 51.1588C99.041 51.8011 98.357 52.7212 98.0463 53.9237C97.731 55.1436 97.8835 56.28 98.4819 57.3456C99.0804 58.4112 100.018 59.0997 101.29 59.4284Z" fill="black"/>
<path d="M111.589 62.4626C113.458 63.0591 114.889 62.3633 115.392 60.7857C115.896 59.2081 115.087 57.8351 113.218 57.2387L109.994 56.2098L110.941 53.2432L110.169 52.997L107.559 61.1766L111.589 62.4626ZM109.77 56.9129L112.891 57.9089C114.348 58.374 114.976 59.3679 114.598 60.5511C114.221 61.7343 113.133 62.1809 111.676 61.7157L108.555 60.7197L109.77 56.9129Z" fill="black"/>
<path d="M129.483 65.9455C131.172 66.3107 132.348 65.6442 132.641 64.2895C132.888 63.1459 132.499 62.3066 131.459 61.7503C132.245 61.6072 132.751 61.0537 132.953 60.1213C133.227 58.8546 132.512 57.816 130.947 57.4774L126.671 56.5528L124.856 64.9447L129.483 65.9455ZM126.504 61.1575L130.181 61.9527C131.466 62.2305 132.079 62.9709 131.854 64.0089C131.63 65.0469 130.765 65.4677 129.481 65.1899L125.804 64.3947L126.504 61.1575ZM127.307 57.4453L130.579 58.1531C131.776 58.4118 132.33 59.0842 132.121 60.0518C131.912 61.0194 131.129 61.4026 129.933 61.1439L126.66 60.4362L127.307 57.4453Z" fill="black"/>
<path d="M137.316 61.8081C136.972 63.1517 136.683 64.0654 136.174 65.0605C135.682 66.0595 134.994 66.5189 134.202 66.3483C134.062 66.318 133.939 66.2915 133.854 66.2549L133.695 66.994C133.779 67.0305 133.885 67.0533 134.008 67.0798C135.187 67.3337 136.123 66.8356 136.765 65.6482C137.095 65.0565 137.347 64.4847 137.543 63.9192C137.738 63.3536 137.946 62.6436 138.15 61.7851L138.585 60.0192L142.932 60.9553L141.279 68.6274L142.071 68.7979L143.879 60.4044L137.966 59.131L137.316 61.8081Z" fill="black"/>
<path d="M148.503 68.9364C147.038 68.5632 146.056 67.6071 146.398 66.264C146.704 65.0605 147.99 64.5335 149.752 64.9823C150.798 65.2489 151.726 65.838 152.556 66.7366L152.205 68.1146C151.293 68.8484 149.899 69.2919 148.503 68.9364ZM148.09 69.6113C149.572 69.9889 150.892 69.7678 152.07 68.9348C151.895 69.9119 152.381 70.5558 153.132 70.7469C153.428 70.8224 153.668 70.8279 153.847 70.7806L154.012 70.1352C153.854 70.1695 153.689 70.1644 153.497 70.1155C152.938 69.9733 152.71 69.4135 152.892 68.6983L153.834 65.0004C154.349 62.977 153.159 61.5965 150.996 61.0456C149.862 60.7568 148.797 60.7826 147.822 61.1101L147.618 61.9125C148.658 61.546 149.676 61.4894 150.67 61.7427C152.554 62.2225 153.44 63.2655 153.031 64.8702L152.751 65.9692C151.912 65.1054 150.889 64.5289 149.72 64.2313C148.726 63.978 147.844 64.0134 147.052 64.3504C146.283 64.6744 145.782 65.2528 145.573 66.0726C145.356 66.9273 145.501 67.6702 146.004 68.3185C146.53 68.9539 147.218 69.3891 148.09 69.6113Z" fill="black"/>
<path d="M156.67 73.6401L157.252 71.0221L165.879 72.9414L165.297 75.5594L166.07 75.7314L166.813 72.3931L165.196 72.0334L166.901 64.3727L160.997 63.0593L160.753 64.0745C160.061 67.1844 159.041 69.2811 157.676 70.3604L156.64 70.1298L155.897 73.4681L156.67 73.6401ZM158.59 70.5637C159.877 69.3379 160.838 67.3389 161.459 64.5452L161.592 63.9478L165.95 64.9172L164.406 71.8575L158.59 70.5637Z" fill="black"/>
<path d="M172.623 74.1742C173.843 74.4075 174.827 74.3393 175.597 73.9551L175.746 73.1772C174.849 73.5554 173.879 73.6447 172.871 73.4519C171.739 73.2355 170.867 72.7203 170.267 71.9275C169.667 71.1347 169.462 70.1974 169.647 69.1333L176.931 70.5267L176.982 70.2615C177.157 69.3422 177.068 68.3721 176.675 67.3622C176.303 66.338 175.325 65.5096 173.911 65.239C172.673 65.0023 171.584 65.2338 170.644 65.9336C169.707 66.6157 169.115 67.6021 168.872 68.875C168.625 70.1656 168.864 71.3109 169.571 72.3076C170.278 73.3042 171.297 73.9205 172.623 74.1742ZM169.796 68.4471C170.005 67.644 170.48 66.9834 171.181 66.4763C171.904 65.9548 172.761 65.7888 173.751 65.9782C176.014 66.4111 176.5 68.4651 176.267 69.685L169.796 68.4471Z" fill="black"/>
<path d="M181.885 69.3494C181.611 70.7092 181.37 71.6367 180.914 72.6572C180.476 73.6805 179.813 74.1753 179.013 74.0465C178.871 74.0236 178.747 74.0036 178.661 73.9715L178.54 74.7179C178.626 74.75 178.733 74.7671 178.857 74.7872C180.048 74.979 180.956 74.4325 181.536 73.2131C181.834 72.6048 182.056 72.0207 182.222 71.4457C182.387 70.8707 182.558 70.1507 182.716 69.2828L183.058 67.4965L187.448 68.2036L186.2 75.9517L186.999 76.0805L188.365 67.6038L182.394 66.6419L181.885 69.3494Z" fill="black"/>
<path d="M194.683 76.8627C195.914 77.0293 196.893 76.9076 197.641 76.4821L197.747 75.6972C196.872 76.1237 195.908 76.2657 194.891 76.1281C193.75 75.9735 192.85 75.5066 192.208 74.7477C191.566 73.9887 191.31 73.064 191.437 71.9913L198.786 72.9861L198.822 72.7185C198.948 71.791 198.806 70.8272 198.358 69.8403C197.931 68.8379 196.909 68.0639 195.482 67.8707C194.234 67.7017 193.159 67.9922 192.258 68.7421C191.36 69.4742 190.823 70.4913 190.649 71.7756C190.472 73.0778 190.773 74.2084 191.534 75.165C192.295 76.1217 193.345 76.6817 194.683 76.8627ZM191.549 71.2981C191.713 70.4848 192.151 69.7993 192.825 69.2547C193.518 68.6947 194.364 68.4822 195.363 68.6175C197.646 68.9265 198.244 70.951 198.077 72.1818L191.549 71.2981Z" fill="black"/>
<path d="M203.841 77.8096L204.271 73.7825L210.231 74.4184L209.801 78.4455L210.606 78.5315L211.517 69.9939L210.712 69.908L210.309 73.6845L204.349 73.0486L204.752 69.2721L203.946 69.1861L203.035 77.7237L203.841 77.8096Z" fill="black"/>
<path d="M217.627 79.3685C218.721 79.4585 219.657 79.2825 220.452 78.8421L220.518 78.0348C219.702 78.5096 218.801 78.7065 217.797 78.6239C216.72 78.5354 215.853 78.1029 215.175 77.3428C214.516 76.5663 214.231 75.6398 214.318 74.5814C214.405 73.523 214.838 72.6555 215.614 71.9969C216.409 71.3397 217.335 71.0547 218.411 71.1431C219.273 71.2139 220.079 71.5149 220.848 72.0477L220.912 71.2584C220.178 70.7465 219.334 70.4604 218.384 70.3823C217.074 70.2747 215.944 70.6153 215.029 71.425C214.114 72.2348 213.596 73.2578 213.494 74.4956C213.391 75.7514 213.735 76.8452 214.506 77.7936C215.277 78.7419 216.318 79.2609 217.627 79.3685Z" fill="black"/>
<path d="M226.629 79.7973L227.111 71.9641L230.381 72.1654L230.426 71.4288L223.078 70.9765L223.033 71.7131L226.303 71.9144L225.82 79.7476L226.629 79.7973Z" fill="black"/>
<path d="M235.423 80.2507C237.149 80.3219 238.193 79.4642 238.25 78.0794C238.299 76.9104 237.772 76.15 236.652 75.7796C237.402 75.5043 237.806 74.8724 237.846 73.9192C237.899 72.6243 237.017 71.7232 235.417 71.6572L231.046 71.4769L230.693 80.0556L235.423 80.2507ZM231.669 76.0424L235.428 76.1975C236.741 76.2516 237.471 76.8763 237.428 77.9374C237.384 78.9985 236.604 79.5608 235.291 79.5067L231.532 79.3516L231.669 76.0424ZM231.825 72.2477L235.171 72.3856C236.393 72.4361 237.055 73.0038 237.014 73.993C236.973 74.9821 236.267 75.4935 235.044 75.443L231.699 75.3051L231.825 72.2477Z" fill="black"/>
<path d="M244.012 78.9386C243.321 78.2084 242.974 77.3032 242.989 76.2413C243.005 75.1794 243.378 74.2848 244.09 73.5751C244.821 72.8657 245.708 72.5187 246.77 72.5342C247.832 72.5497 248.708 72.9226 249.4 73.6528C250.109 74.3832 250.456 75.2884 250.441 76.3503C250.425 77.4121 250.052 78.3068 249.321 79.0162C248.609 79.7078 247.722 80.0549 246.66 80.0394C245.598 80.0239 244.722 79.651 244.012 78.9386ZM249.944 79.5293C250.803 78.6598 251.25 77.6042 251.268 76.3624C251.287 75.1205 250.87 74.0523 250.037 73.158C249.204 72.2637 248.131 71.798 246.781 71.7783C245.431 71.7585 244.327 72.1924 243.468 73.062C242.609 73.9315 242.18 74.9874 242.161 76.2292C242.143 77.4711 242.542 78.539 243.375 79.4333C244.208 80.3276 245.299 80.7756 246.649 80.7953C247.999 80.815 249.085 80.3989 249.944 79.5293Z" fill="black"/>
<path d="M254.864 80.6715L254.778 73.238L258.443 77.3179L258.749 77.3144L262.337 73.1506L262.423 80.5841L263.233 80.5747L263.134 71.9893L262.36 71.9983L258.594 76.3621L254.729 72.0865L253.955 72.0955L254.054 80.6809L254.864 80.6715Z" fill="black"/>
<path d="M276.554 80.3451C277.651 80.2936 278.556 79.9989 279.288 79.46L279.25 78.6509C278.502 79.2266 277.634 79.5376 276.627 79.5849C275.548 79.6356 274.632 79.3182 273.862 78.6515C273.109 77.9661 272.707 77.084 272.657 76.0231C272.608 74.9623 272.925 74.0464 273.61 73.2934C274.314 72.5396 275.196 72.1378 276.275 72.0872C277.138 72.0466 277.976 72.2416 278.807 72.6711L278.77 71.8799C277.976 71.4667 277.102 71.2915 276.149 71.3362C274.837 71.3978 273.76 71.8808 272.957 72.8016C272.153 73.7223 271.771 74.8033 271.829 76.044C271.889 77.3026 272.37 78.3432 273.256 79.1845C274.143 80.0259 275.242 80.4068 276.554 80.3451Z" fill="black"/>
<path d="M286.301 82.3053L286.091 79.6316L294.902 78.9389L295.112 81.6127L295.902 81.5506L295.634 78.1411L293.983 78.2709L293.368 70.447L287.338 70.921L287.402 71.9632C287.652 75.1394 287.291 77.4428 286.303 78.8747L285.244 78.9579L285.512 82.3674L286.301 82.3053ZM287.236 78.8013C288.107 77.2523 288.44 75.0594 288.216 72.2062L288.168 71.5961L292.618 71.2462L293.175 78.3344L287.236 78.8013Z" fill="black"/>
<path d="M302.742 69.3661C301.22 69.5239 300.116 70.2175 299.393 71.4506L299.237 69.9466L298.432 70.0302L299.688 82.1512L300.494 82.0676L299.965 76.965C300.927 78.0415 302.168 78.4919 303.672 78.336C304.961 78.2023 305.953 77.6471 306.668 76.6862C307.383 75.7254 307.685 74.6264 307.557 73.391C307.429 72.1556 306.909 71.1599 306.013 70.3661C305.116 69.5724 304.031 69.2324 302.742 69.3661ZM302.677 70.1329C303.733 70.0234 304.63 70.2923 305.402 70.9361C306.173 71.562 306.624 72.42 306.733 73.4764C306.843 74.5327 306.578 75.465 305.954 76.2536C305.33 77.0422 304.507 77.4893 303.451 77.5989C302.001 77.7492 300.547 76.9951 299.846 75.8191L299.512 72.5964C299.939 71.3035 301.191 70.287 302.677 70.1329Z" fill="black"/>
<path d="M311.783 80.943C313.069 80.7817 313.812 79.7632 314.376 77.8965L317.49 67.8728L316.615 67.9826L314.205 75.8136L309.828 68.8342L308.918 68.9484L313.918 76.8474C313.572 77.9974 313.242 78.837 312.923 79.3305C312.624 79.8397 312.189 80.1302 311.6 80.2041C311.207 80.2534 310.821 80.2112 310.439 80.0595L310.535 80.8275C310.843 80.9702 311.265 81.008 311.783 80.943Z" fill="black"/>
<path d="M325.594 75.6288C327.945 75.2829 329.291 74.0477 329.063 72.4984C328.898 71.3765 328.149 70.7407 326.797 70.5758C327.793 70.0472 328.233 69.3275 328.096 68.4015C327.897 67.0481 326.365 66.4003 324.441 66.6833C323.337 66.8458 322.384 67.168 321.564 67.6526L321.679 68.4362C322.532 67.9286 323.447 67.5938 324.427 67.4496C326.047 67.2112 327.159 67.5934 327.313 68.6441C327.431 69.4455 326.786 70.25 325.236 70.478L323.812 70.6877L323.919 71.4178L325.344 71.2082C326.911 70.9776 328.076 71.4792 328.236 72.5655C328.406 73.7231 327.265 74.6188 325.395 74.894C324.309 75.0539 323.298 74.9843 322.324 74.6727L322.442 75.4741C323.375 75.7553 324.436 75.7992 325.594 75.6288Z" fill="black"/>
<path d="M336.015 73.7894C337.95 73.4687 338.907 72.1971 338.637 70.5634C338.366 68.9297 337.02 68.0762 335.085 68.3969L331.746 68.9501L331.237 65.878L330.438 66.0104L331.842 74.4809L336.015 73.7894ZM331.867 69.6782L335.099 69.1426C336.608 68.8925 337.62 69.4912 337.823 70.7165C338.026 71.9418 337.261 72.8348 335.752 73.0849L332.52 73.6204L331.867 69.6782Z" fill="black"/>
<path d="M343.168 72.5663L345.107 68.742L348.274 68.1488L348.9 71.4927L349.696 71.3436L348.116 62.9043L343.852 63.7029C341.994 64.0508 341.139 65.2548 341.417 66.741C341.682 68.1564 342.707 68.935 344.238 68.7949L342.212 72.7452L343.168 72.5663ZM344.776 68.053C343.379 68.3148 342.453 67.7739 342.241 66.6416C342.026 65.4916 342.696 64.6702 344.094 64.4084L347.455 63.7788L348.138 67.4234L344.776 68.053Z" fill="black"/>
<path d="M352.86 70.7432L351.34 63.4663L355.725 66.7614L356.024 66.6988L358.74 61.9204L360.261 69.1973L361.053 69.0317L359.298 60.6271L358.54 60.7854L355.688 65.7944L351.069 62.346L350.312 62.5042L352.067 70.9088L352.86 70.7432Z" fill="black"/>
<path d="M367.101 67.6962L371.407 59.1485L373.078 66.2999L373.867 66.1156L371.914 57.7547L371.195 57.9226L366.875 66.492L365.2 59.3231L364.412 59.5073L366.365 67.8682L367.101 67.6962Z" fill="black"/>
<path d="M377.362 61.3958L375.327 52.7763L374.383 53.0113L376.629 61.5785L377.362 61.3958ZM377.394 65.0979C378.127 65.5831 378.875 64.3395 378.102 63.9198C377.369 63.4346 376.622 64.6781 377.394 65.0979Z" fill="black"/>
</svg>
