<svg width="1721" height="896" viewBox="0 0 1721 896" fill="none" xmlns="http://www.w3.org/2000/svg">
<path d="M85.3088 434.572C96.806 426.39 108.416 416.829 120.739 409.787C122.193 408.956 119.191 412.792 118.097 414.06C114.532 418.194 109.414 422.417 108.074 427.968C106.636 433.924 106.72 439.61 109.706 444.984C110.666 446.713 108.52 447.381 107.142 447.703C103.05 448.661 99.9227 450.276 97.1965 453.608C95.2799 455.951 92.5496 469.045 88.4167 465.574C85.8343 463.404 83.8361 460.5 81.1132 458.503C77.8576 456.116 72.9073 455.495 69.1478 454.152C65.8236 452.965 66.9622 447.247 66.6615 444.595C66.0452 439.161 64.1513 434.148 63.4759 428.745C63.1625 426.238 60.2912 421.331 64.6802 422.957C69.5035 424.743 73.7655 427.553 78.6269 429.289C81.9254 430.467 84.2872 433.551 86.7073 435.971" stroke="#B39681" stroke-linecap="round" stroke-linejoin="round"/>
<path d="M1654.13 571.239C1669.66 560.19 1685.33 547.279 1701.97 537.77C1703.94 536.648 1699.88 541.829 1698.41 543.541C1693.59 549.122 1686.68 554.825 1684.87 562.321C1682.93 570.363 1683.04 578.041 1687.08 585.298C1688.37 587.633 1685.48 588.535 1683.61 588.97C1678.09 590.263 1673.87 592.445 1670.18 596.944C1667.6 600.107 1663.91 617.789 1658.33 613.101C1654.84 610.172 1652.14 606.25 1648.47 603.554C1644.07 600.33 1637.39 599.492 1632.31 597.678C1627.82 596.075 1629.36 588.354 1628.95 584.774C1628.12 577.435 1625.56 570.666 1624.65 563.37C1624.23 559.984 1620.35 553.359 1626.28 555.554C1632.79 557.966 1638.54 561.76 1645.11 564.105C1649.56 565.696 1652.75 569.86 1656.02 573.128" stroke="#B39681" stroke-linecap="round" stroke-linejoin="round"/>
<path d="M164.678 725.239C180.203 714.19 195.88 701.279 212.521 691.77C214.484 690.648 210.43 695.829 208.953 697.541C204.139 703.122 197.228 708.825 195.419 716.321C193.478 724.363 193.591 732.041 197.622 739.298C198.92 741.633 196.021 742.535 194.16 742.97C188.635 744.263 184.412 746.445 180.731 750.944C178.142 754.107 174.456 771.789 168.875 767.101C165.388 764.172 162.689 760.25 159.013 757.554C154.616 754.33 147.932 753.492 142.855 751.678C138.366 750.075 139.904 742.354 139.498 738.774C138.666 731.435 136.108 724.666 135.196 717.37C134.773 713.984 130.896 707.359 136.822 709.554C143.336 711.966 149.091 715.76 155.655 718.105C160.109 719.696 163.299 723.86 166.567 727.128" stroke="#F7E353" stroke-linecap="round" stroke-linejoin="round"/>
<path d="M1651.23 238.752C1662.28 230.882 1673.45 221.687 1685.3 214.915C1686.7 214.116 1683.81 217.805 1682.76 219.025C1679.33 223 1674.41 227.062 1673.12 232.4C1671.74 238.128 1671.82 243.596 1674.69 248.765C1675.61 250.428 1673.55 251.07 1672.22 251.38C1668.29 252.301 1665.28 253.855 1662.66 257.059C1660.82 259.312 1658.19 271.906 1654.22 268.567C1651.73 266.481 1649.81 263.687 1647.19 261.767C1644.06 259.471 1639.3 258.874 1635.68 257.582C1632.49 256.441 1633.58 250.941 1633.29 248.391C1632.7 243.165 1630.88 238.344 1630.23 233.148C1629.93 230.736 1627.17 226.017 1631.39 227.581C1636.03 229.299 1640.12 232.001 1644.8 233.671C1647.97 234.804 1650.24 237.769 1652.57 240.097" stroke="#F7E353" stroke-linecap="round" stroke-linejoin="round"/>
<path d="M60.4841 221.625C60.4841 205.014 55.3063 190.939 52.6419 174.572C51.1233 165.244 50.122 155.695 49.1708 146.288C48.6009 140.653 49.0934 140.756 51.8706 145.517C59.5276 158.643 63.4558 174.28 68.5192 188.521C70.432 193.9 74.8885 211.544 82.0824 211.212C93.2529 210.696 104.893 204.1 115.765 201.055C122.558 199.153 104.235 209.195 98.6668 213.526C95.8145 215.744 93.5776 218.578 89.9889 219.375C84.9429 220.497 90.5543 233.902 91.2102 235.638C97.4563 252.172 101.059 267.896 103.295 285.391C103.776 289.151 106.897 300.156 101.624 293.362C96.3246 286.535 90.472 280.414 85.9392 272.985C81.1849 265.194 76.7972 257.105 73.4045 248.623C71.822 244.667 71.7596 241.626 67.2336 243.738C50.104 251.732 32.8698 256.482 13.9451 258.394C10.8597 258.705 7.76697 258.835 4.68867 259.229C3.49378 259.383 0.442204 260.567 1.08897 259.551C4.34522 254.434 13.8204 250.827 18.8304 248.109C28.4746 242.876 38.994 238.441 47.8852 231.974C51.8376 229.1 58.5387 225.079 63.3768 224.004C66.475 223.315 64.6984 220.383 63.9553 218.154" stroke="#F0AA87" stroke-linecap="round" stroke-linejoin="round"/>
<path d="M1527.29 50.2697C1527.29 39.9913 1524.09 31.2819 1522.44 21.1545C1521.5 15.3824 1520.88 9.47415 1520.29 3.65358C1519.93 0.166301 1520.24 0.23039 1521.96 3.17628C1526.7 11.2985 1529.13 20.9739 1532.27 29.7856C1533.45 33.1144 1536.21 44.0316 1540.67 43.8261C1547.59 43.5071 1554.8 39.4254 1561.53 37.5417C1565.74 36.3648 1554.39 42.5782 1550.94 45.258C1549.17 46.6307 1547.79 48.3841 1545.57 48.8775C1542.44 49.5714 1545.92 57.8663 1546.32 58.9406C1550.19 69.1711 1552.42 78.9006 1553.81 89.7263C1554.1 92.0527 1556.04 98.8624 1552.77 94.6583C1549.49 90.4336 1545.87 86.6464 1543.06 82.0497C1540.11 77.2284 1537.4 72.2232 1535.3 66.9751C1534.32 64.5271 1534.28 62.6453 1531.47 63.9522C1520.86 68.8985 1510.19 71.838 1498.47 73.0208C1496.56 73.2137 1494.64 73.2937 1492.74 73.5379C1492 73.6327 1490.11 74.3657 1490.51 73.7368C1492.52 70.5706 1498.39 68.3391 1501.5 66.6569C1507.47 63.4187 1513.98 60.6746 1519.49 56.6734C1521.94 54.8947 1526.09 52.4066 1529.08 51.7413C1531 51.3153 1529.9 49.5012 1529.44 48.1218" stroke="#F0AA87" stroke-linecap="round" stroke-linejoin="round"/>
<path d="M1298.82 702.451C1304.05 693.6 1305.72 684.47 1309.44 674.91C1311.57 669.462 1314.04 664.059 1316.49 658.747C1317.96 655.565 1318.19 655.775 1318.17 659.186C1318.13 668.592 1315.3 678.16 1313.52 687.342C1312.85 690.811 1309.68 701.615 1313.62 703.703C1319.74 706.946 1328.02 707.097 1334.78 708.898C1339 710.024 1326.07 709.604 1321.73 710.159C1319.52 710.442 1317.43 711.248 1315.27 710.543C1312.22 709.551 1311 718.461 1310.8 719.593C1308.93 730.369 1305.91 739.881 1301.59 749.908C1300.67 752.062 1298.87 758.909 1298.2 753.628C1297.52 748.322 1296.32 743.218 1296.24 737.832C1296.16 732.183 1296.36 726.492 1297.22 720.904C1297.62 718.298 1298.55 716.658 1295.47 716.358C1283.82 715.224 1273.13 712.328 1262.44 707.387C1260.69 706.582 1259 705.677 1257.24 704.918C1256.55 704.623 1254.55 704.294 1255.22 703.956C1258.56 702.255 1264.75 703.317 1268.28 703.446C1275.07 703.694 1282.07 704.644 1288.85 703.998C1291.86 703.711 1296.7 703.678 1299.62 704.629C1301.49 705.238 1301.46 703.116 1301.77 701.694" stroke="#F0AA87" stroke-linecap="round" stroke-linejoin="round"/>
<path d="M284.803 57.7451C284.803 53.4174 283.467 49.7503 282.779 45.4861C282.388 43.0557 282.129 40.5681 281.884 38.1173C281.737 36.649 281.864 36.676 282.58 37.9163C284.556 41.3362 285.57 45.4101 286.877 49.1203C287.37 50.5218 288.52 55.1186 290.377 55.0321C293.259 54.8977 296.263 53.1791 299.069 52.386C300.822 51.8904 296.093 54.5066 294.656 55.635C293.92 56.2129 293.343 56.9512 292.417 57.159C291.115 57.4511 292.563 60.9437 292.732 61.396C294.344 65.7036 295.274 69.8003 295.851 74.3584C295.975 75.338 296.78 78.2052 295.419 76.4351C294.052 74.6562 292.542 73.0616 291.372 71.1262C290.145 69.0962 289.013 66.9887 288.137 64.779C287.729 63.7482 287.713 62.9559 286.545 63.5062C282.125 65.5889 277.677 66.8265 272.794 67.3246C271.997 67.4058 271.199 67.4395 270.405 67.5423C270.097 67.5822 269.309 67.8908 269.476 67.626C270.316 66.2929 272.761 65.3533 274.054 64.645C276.543 63.2816 279.258 62.1261 281.552 60.4414C282.572 59.6925 284.301 58.6449 285.55 58.3648C286.349 58.1854 285.891 57.4215 285.699 56.8408" stroke="#795548" stroke-linecap="round" stroke-linejoin="round"/>
<path d="M464.712 853.121C464.712 843.708 461.817 835.732 460.327 826.457C459.478 821.171 458.918 815.761 458.386 810.43C458.067 807.237 458.343 807.295 459.896 809.993C464.177 817.431 466.373 826.292 469.204 834.362C470.274 837.41 472.765 847.408 476.787 847.22C483.033 846.928 489.541 843.19 495.62 841.465C499.418 840.387 489.173 846.077 486.06 848.531C484.465 849.788 483.215 851.394 481.208 851.846C478.387 852.481 481.524 860.078 481.891 861.061C485.383 870.43 487.397 879.341 488.648 889.255C488.916 891.385 490.662 897.621 487.713 893.771C484.751 889.902 481.478 886.434 478.944 882.224C476.286 877.809 473.832 873.225 471.936 868.419C471.051 866.177 471.016 864.454 468.485 865.651C458.908 870.181 449.272 872.873 438.691 873.956C436.966 874.133 435.237 874.206 433.516 874.429C432.847 874.516 431.141 875.188 431.503 874.612C433.323 871.712 438.621 869.668 441.422 868.128C446.815 865.162 452.696 862.649 457.667 858.985C459.877 857.356 463.624 855.078 466.329 854.468C468.061 854.078 467.068 852.417 466.652 851.154" stroke="#795548" stroke-linecap="round" stroke-linejoin="round"/>
<path d="M38.4901 598.043C38.4901 591.984 36.6195 586.85 35.6569 580.881C35.1083 577.478 34.7465 573.995 34.4029 570.564C34.197 568.509 34.3749 568.546 35.3782 570.283C38.1445 575.071 39.5637 580.774 41.3929 585.968C42.084 587.931 43.694 594.366 46.293 594.245C50.3286 594.057 54.5339 591.651 58.4618 590.54C60.9159 589.847 54.2962 593.509 52.2845 595.089C51.254 595.898 50.4459 596.932 49.1494 597.223C47.3264 597.632 49.3537 602.521 49.5906 603.154C51.8472 609.185 53.1486 614.92 53.9565 621.302C54.1301 622.673 55.2578 626.687 53.3527 624.209C51.4383 621.719 49.3239 619.486 47.6864 616.777C45.9687 613.935 44.3836 610.984 43.1579 607.891C42.5862 606.448 42.5636 605.338 40.9285 606.109C34.74 609.024 28.5137 610.757 21.6767 611.454C20.5621 611.568 19.4447 611.615 18.3326 611.759C17.9009 611.815 16.7985 612.247 17.0321 611.876C18.2085 610.01 21.6317 608.695 23.4417 607.703C26.9259 605.794 30.7262 604.177 33.9384 601.818C35.3663 600.77 37.7873 599.303 39.5351 598.911C40.6544 598.66 40.0126 597.59 39.7441 596.777" stroke="#F0AA87" stroke-linecap="round" stroke-linejoin="round"/>
</svg>
