<svg width="197" height="99" viewBox="0 0 197 99" fill="none" xmlns="http://www.w3.org/2000/svg">
<path d="M1 2.72433C54.503 -4.4094 107.989 10.8158 150.791 44.2364C164.658 55.0637 175.75 68.157 184.635 83.2946C186.536 86.5333 190.819 101.592 190.565 90.6564C190.212 75.4626 181.363 60.8206 181.363 45.9746C181.363 34.7448 183.203 68.3839 183.203 79.6137C183.203 100.263 174.196 90.259 161.22 81.8632C154.488 77.5072 146.688 70.2527 141.691 63.8678C139.429 60.9766 143.503 66.7641 143.941 67.1397C148.046 70.6587 153 72.686 157.846 74.9104C167.774 79.4673 176.663 86.9163 185.862 92.8035C188.252 94.333 196.086 101.548 196.086 95.4619C196.086 86.6736 192.967 79.2732 191.588 70.616C189.33 56.4438 188.725 42.7786 188.725 28.4905" stroke="black" stroke-linecap="round" stroke-linejoin="round"/>
</svg>
