<svg width="357" height="81" viewBox="0 0 357 81" fill="none" xmlns="http://www.w3.org/2000/svg">
<path d="M1.15906 11.8347L7.75278 2.01755L14.3723 6.46354L7.77856 16.2807L8.46591 16.7424L15.4912 6.28268L7.49698 0.913361L0.471705 11.3731L1.15906 11.8347Z" fill="black"/>
<path d="M13.1246 17.7986C12.9001 16.8184 13.0613 15.8625 13.6142 14.9558C14.1671 14.0491 14.943 13.4681 15.9172 13.2189C16.9068 12.979 17.8473 13.1308 18.754 13.6837C19.6607 14.2366 20.2263 15.0031 20.4509 15.9834C20.6907 16.9729 20.5295 17.9288 19.9766 18.8355C19.4237 19.7422 18.6478 20.3232 17.6582 20.5631C16.6934 20.797 15.7529 20.6451 14.8462 20.0922C13.9395 19.5393 13.3739 18.7728 13.1246 17.7986ZM17.9337 21.3214C19.1152 21.0088 20.037 20.327 20.6836 19.2666C21.3302 18.2062 21.5143 17.0745 21.2511 15.881C20.988 14.6875 20.3002 13.7411 19.1476 13.0382C17.995 12.3354 16.8232 12.148 15.6417 12.4606C14.4603 12.7732 13.5539 13.4643 12.9073 14.5247C12.2607 15.5851 12.0612 16.7074 12.3244 17.9009C12.5875 19.0944 13.3 20.0349 14.4526 20.7377C15.6053 21.4405 16.7522 21.634 17.9337 21.3214Z" fill="black"/>
<path d="M22.0279 25.0204L25.6203 18.5121L26.7959 23.8692L27.0638 24.0171L32.239 22.1654L28.6466 28.6738L29.3557 29.0652L33.5048 21.5482L32.8272 21.1742L27.3987 23.1123L26.1455 17.4861L25.4679 17.1121L21.3188 24.629L22.0279 25.0204Z" fill="black"/>
<path d="M36.7384 33.0944C37.8503 33.6479 38.8166 33.8474 39.6616 33.6848L40.0145 32.9758C39.0487 33.0983 38.0905 32.9229 37.172 32.4658C36.1406 31.9524 35.439 31.2212 35.0751 30.2961C34.7112 29.371 34.7658 28.413 35.2309 27.4381L41.87 30.7426L41.9903 30.5009C42.4073 29.663 42.5827 28.7047 42.4761 27.6262C42.3936 26.5397 41.6753 25.4784 40.3861 24.8367C39.2582 24.2753 38.1471 24.2048 37.0531 24.6254C35.9671 25.0299 35.1314 25.8203 34.5539 26.9805C33.9684 28.1568 33.89 29.3242 34.3026 30.4746C34.7152 31.625 35.5298 32.4929 36.7384 33.0944ZM35.5598 26.8177C35.9771 26.1005 36.6121 25.5922 37.4246 25.2929C38.2613 24.9855 39.1308 25.0563 40.0332 25.5055C42.0958 26.5322 42.0111 28.6414 41.4576 29.7533L35.5598 26.8177Z" fill="black"/>
<path d="M51.8523 30.2638C50.4553 29.6398 49.1522 29.6886 47.9099 30.3954L48.5265 29.0148L47.787 28.6845L42.817 39.8109L43.5566 40.1413L45.6488 35.4573C45.9441 36.8706 46.7939 37.8811 48.1744 38.4977C49.3577 39.0263 50.4945 39.0412 51.5938 38.5662C52.6931 38.0913 53.5042 37.2904 54.0107 36.1564C54.5173 35.0224 54.5651 33.9004 54.1852 32.7647C53.8053 31.629 53.0356 30.7924 51.8523 30.2638ZM51.4125 30.8953C52.3822 31.3285 53.0242 32.0095 53.3716 32.9532C53.7262 33.8805 53.6879 34.8491 53.2547 35.8187C52.8216 36.7884 52.1258 37.4633 51.1912 37.8344C50.2566 38.2055 49.3209 38.1818 48.3513 37.7487C47.02 37.1541 46.138 35.7744 46.1187 34.4055L47.4401 31.4472C48.4561 30.5408 50.0484 30.286 51.4125 30.8953Z" fill="black"/>
<path d="M54.8485 41.0815L58.5959 38.9977L61.5523 40.2788L60.1997 43.4003L60.9429 43.7223L64.3567 35.8442L60.3763 34.1194C58.6421 33.3679 57.2598 33.8871 56.6586 35.2744C56.086 36.5957 56.4995 37.8146 57.8461 38.5551L53.9566 40.695L54.8485 41.0815ZM58.7077 38.2418C57.4029 37.6764 56.9388 36.7102 57.3969 35.6532C57.8621 34.5797 58.8772 34.2741 60.182 34.8395L63.3201 36.1993L61.8457 39.6016L58.7077 38.2418Z" fill="black"/>
<path d="M64.9728 46.0561L73.5133 41.7353L70.6112 48.4816L71.3553 48.8017L74.7482 40.9145L74.0703 40.6229L65.5061 44.9531L68.4153 38.1903L67.6712 37.8702L64.2783 45.7574L64.9728 46.0561ZM71.7693 38.0459C72.4803 38.3518 73.1846 38.4 73.8561 38.1598C74.5277 37.9196 75.0176 37.4641 75.3092 36.7862L74.6313 36.4946C74.2045 37.4867 73.1474 37.8941 72.0396 37.4176C70.8987 36.9268 70.4676 35.8792 70.8944 34.8871L70.2164 34.5954C69.6189 35.9844 70.2316 37.3844 71.7693 38.0459Z" fill="black"/>
<path d="M77.9646 50.7993L80.4119 43.3426L83.5245 44.3642L83.7547 43.663L76.7597 41.3673L76.5296 42.0685L79.6423 43.09L77.195 50.5467L77.9646 50.7993Z" fill="black"/>
<path d="M85.6271 53.1594C86.7764 53.6303 87.7547 53.7588 88.5856 53.5352L88.8859 52.8023C87.9316 52.9949 86.9631 52.8898 86.0137 52.5008C84.9477 52.064 84.1946 51.3858 83.7643 50.4898C83.3339 49.5937 83.3185 48.6342 83.7113 47.628L90.5736 50.4398L90.676 50.19C91.0309 49.3239 91.1359 48.3554 90.951 47.2875C90.7895 46.2098 89.9957 45.2037 88.6632 44.6578C87.4973 44.18 86.3841 44.1908 85.3237 44.69C84.2701 45.1725 83.4941 46.0217 83.0028 47.221C82.5046 48.4369 82.5115 49.6068 83.0069 50.7241C83.5022 51.8413 84.3779 52.6476 85.6271 53.1594ZM83.9942 46.9853C84.3581 46.2396 84.9543 45.6863 85.7428 45.3286C86.5548 44.961 87.4272 44.9683 88.3599 45.3505C90.4919 46.2241 90.5612 48.3338 90.0903 49.4831L83.9942 46.9853Z" fill="black"/>
<path d="M96.2906 56.4284C97.3537 56.7032 98.3055 56.6889 99.1636 56.3901L99.3663 55.6058C98.4818 55.935 97.5603 55.9757 96.5843 55.7235C95.5387 55.4533 94.7574 54.8796 94.2185 54.0152C93.7016 53.138 93.5782 52.1765 93.8439 51.1483C94.1096 50.1201 94.6834 49.3388 95.5606 48.8218C96.4553 48.3094 97.4167 48.186 98.4624 48.4563C99.2989 48.6724 100.042 49.1062 100.709 49.7619L100.907 48.9951C100.271 48.3658 99.488 47.9405 98.5644 47.7018C97.2922 47.373 96.121 47.5165 95.0812 48.1588C94.0415 48.8011 93.3575 49.7212 93.0467 50.9237C92.7315 52.1436 92.884 53.28 93.4824 54.3456C94.0808 55.4112 95.0184 56.0997 96.2906 56.4284Z" fill="black"/>
<path d="M106.589 59.4626C108.458 60.0591 109.889 59.3633 110.393 57.7857C110.896 56.2081 110.088 54.8351 108.218 54.2387L104.995 53.2098L105.941 50.2432L105.17 49.997L102.559 58.1766L106.589 59.4626ZM104.77 53.9129L107.891 54.9089C109.349 55.374 109.976 56.3679 109.599 57.5511C109.221 58.7343 108.134 59.1809 106.676 58.7157L103.555 57.7197L104.77 53.9129Z" fill="black"/>
<path d="M257.262 78.3847C258.359 78.3332 259.264 78.0384 259.996 77.4995L259.958 76.6904C259.21 77.2661 258.342 77.5772 257.335 77.6245C256.256 77.6751 255.34 77.3577 254.57 76.6911C253.817 76.0056 253.415 75.1235 253.365 74.0627C253.316 73.0018 253.633 72.086 254.318 71.333C255.022 70.5792 255.904 70.1774 256.983 70.1267C257.846 70.0862 258.684 70.2811 259.515 70.7106L259.478 69.9195C258.684 69.5063 257.81 69.331 256.857 69.3758C255.545 69.4374 254.468 69.9204 253.665 70.8411C252.861 71.7618 252.479 72.8429 252.537 74.0835C252.597 75.3421 253.078 76.3827 253.964 77.2241C254.851 78.0654 255.95 78.4463 257.262 78.3847Z" fill="black"/>
<path d="M266.681 80.1499L266.589 77.4695L275.421 77.1664L275.513 79.8468L276.305 79.8197L276.188 76.4017L274.533 76.4585L274.263 68.6151L268.219 68.8225L268.237 69.8665C268.346 73.0506 267.884 75.3358 266.833 76.7227L265.772 76.7591L265.889 80.1771L266.681 80.1499ZM267.769 76.6906C268.707 75.1815 269.137 73.0055 269.039 70.1452L269.018 69.5335L273.479 69.3804L273.723 76.4862L267.769 76.6906Z" fill="black"/>
<path d="M283.746 68.0021C282.217 68.0437 281.063 68.6513 280.248 69.8259L280.207 68.3144L279.398 68.3365L279.729 80.518L280.539 80.4959L280.399 75.3678C281.277 76.5144 282.48 77.0579 283.991 77.0168C285.287 76.9816 286.318 76.5034 287.104 75.5997C287.89 74.696 288.275 73.6231 288.241 72.3816C288.207 71.14 287.765 70.1077 286.931 69.248C286.097 68.3884 285.042 67.9669 283.746 68.0021ZM283.623 68.7618C284.684 68.7329 285.558 69.0693 286.279 69.7699C287 70.4526 287.384 71.3425 287.413 72.4041C287.442 73.4657 287.107 74.3752 286.424 75.114C285.742 75.8528 284.888 76.2361 283.827 76.265C282.369 76.3046 280.977 75.4422 280.368 74.2163L280.28 70.9775C280.804 69.7208 282.129 68.8024 283.623 68.7618Z" fill="black"/>
<path d="M291.881 80.2335C293.175 80.1705 293.993 79.2115 294.698 77.3931L298.565 67.6353L297.685 67.6782L294.686 75.3032L290.853 68.0111L289.936 68.0558L294.321 76.3121C293.889 77.4325 293.496 78.2446 293.14 78.7124C292.803 79.1974 292.347 79.4539 291.754 79.4828C291.359 79.5021 290.977 79.4306 290.607 79.2504L290.645 80.0234C290.941 80.1892 291.359 80.2589 291.881 80.2335Z" fill="black"/>
<path d="M303.773 76.1692C306.14 75.9633 307.557 74.8101 307.421 73.25C307.323 72.1203 306.613 71.4412 305.273 71.1964C306.298 70.7278 306.78 70.0355 306.699 69.103C306.581 67.7401 305.089 67.0026 303.152 67.1711C302.041 67.2678 301.07 67.5329 300.222 67.968L300.291 68.757C301.173 68.3009 302.106 68.0209 303.092 67.9352C304.724 67.7932 305.811 68.2407 305.903 69.2987C305.973 70.1057 305.281 70.8705 303.721 71.0062L302.286 71.131L302.35 71.8663L303.785 71.7415C305.363 71.6042 306.497 72.1741 306.592 73.268C306.693 74.4336 305.5 75.2601 303.617 75.4238C302.523 75.519 301.518 75.3896 300.565 75.0208L300.635 75.8278C301.55 76.1638 302.607 76.2706 303.773 76.1692Z" fill="black"/>
<path d="M314.284 74.9512C316.235 74.7458 317.266 73.5332 317.093 71.8863C316.919 70.2394 315.627 69.3076 313.676 69.513L310.31 69.8672L309.984 66.7703L309.179 66.8551L310.077 75.3939L314.284 74.9512ZM310.387 70.6011L313.645 70.2582C315.167 70.0981 316.141 70.7557 316.271 71.9909C316.401 73.2261 315.585 74.0721 314.064 74.2323L310.806 74.5752L310.387 70.6011Z" fill="black"/>
<path d="M321.497 74.1543L323.659 70.4517L326.856 70.0475L327.283 73.4226L328.086 73.3209L327.009 64.8028L322.705 65.3471C320.83 65.5843 319.906 66.7354 320.095 68.2355C320.276 69.6641 321.253 70.5021 322.789 70.453L320.533 74.2763L321.497 74.1543ZM323.37 69.7444C321.96 69.9228 321.068 69.328 320.923 68.1851C320.777 67.0244 321.494 66.2442 322.905 66.0657L326.298 65.6366L326.763 69.3153L323.37 69.7444Z" fill="black"/>
<path d="M331.28 72.9095L330.195 65.5552L334.376 69.1046L334.679 69.0599L337.674 64.451L338.759 71.8053L339.561 71.687L338.307 63.1931L337.541 63.3061L334.397 68.1372L329.991 64.4209L329.225 64.5339L330.479 73.0278L331.28 72.9095Z" fill="black"/>
<path d="M343.677 71.7123L348.483 63.435L349.726 70.6729L350.525 70.5358L349.071 62.0738L348.343 62.1987L343.523 70.4968L342.276 63.2412L341.478 63.3783L342.932 71.8403L343.677 71.7123Z" fill="black"/>
<path d="M355.294 66.0315L353.773 57.3065L352.818 57.4851L354.551 66.1704L355.294 66.0315ZM355.106 69.729C355.809 70.2568 356.629 69.0597 355.883 68.5949C355.18 68.0671 354.36 69.2642 355.106 69.729Z" fill="black"/>
<path d="M126.563 55.8935C125.101 55.4422 123.813 55.6474 122.665 56.4985L123.111 55.0538L122.337 54.8149L118.743 66.4586L119.516 66.6975L121.03 61.7958C121.493 63.1633 122.458 64.0642 123.903 64.5102C125.141 64.8925 126.272 64.7705 127.306 64.1667C128.34 63.5629 129.049 62.6703 129.415 61.4836C129.781 60.2968 129.694 59.1772 129.18 58.0955C128.666 57.0138 127.802 56.2758 126.563 55.8935ZM126.203 56.5734C127.217 56.8867 127.937 57.4855 128.395 58.3806C128.859 59.2584 128.937 60.2246 128.624 61.2393C128.311 62.254 127.701 63.0078 126.818 63.4887C125.935 63.9695 125.003 64.0586 123.988 63.7454C122.595 63.3152 121.554 62.0517 121.37 60.6951L122.325 57.5993C123.225 56.5772 124.775 56.1327 126.203 56.5734Z" fill="black"/>
<path d="M135.522 66.8881C136.72 67.2136 137.707 67.2205 138.504 66.896L138.711 66.1316C137.788 66.4405 136.814 66.4557 135.824 66.1868C134.712 65.8849 133.881 65.3049 133.344 64.4687C132.806 63.6326 132.672 62.6823 132.938 61.6354L140.095 63.579L140.166 63.3184C140.411 62.4151 140.396 61.4411 140.08 60.4042C139.787 59.3547 138.875 58.4542 137.486 58.0768C136.27 57.7466 135.166 57.8946 134.176 58.5208C133.19 59.1297 132.524 60.0682 132.185 61.3189C131.84 62.5869 131.991 63.7471 132.621 64.7947C133.25 65.8423 134.219 66.5343 135.522 66.8881ZM133.139 60.9626C133.409 60.1777 133.932 59.5552 134.67 59.1029C135.431 58.6379 136.297 58.5375 137.27 58.8017C139.494 59.4055 139.823 61.4906 139.497 62.6892L133.139 60.9626Z" fill="black"/>
<path d="M144.26 69.146C146.571 69.7018 148.281 69.0579 148.647 67.5354C148.912 66.4328 148.455 65.5637 147.261 64.9063C148.382 64.7872 149.059 64.2835 149.278 63.3735C149.598 62.0434 148.417 60.8708 146.527 60.4161C145.442 60.155 144.438 60.0985 143.496 60.2422L143.311 61.0122C144.292 60.8594 145.265 60.8901 146.228 61.1216C147.821 61.5048 148.709 62.274 148.461 63.3065C148.271 64.0941 147.372 64.5998 145.85 64.2335L144.45 63.8966L144.277 64.6142L145.677 64.951C147.217 65.3215 148.111 66.2216 147.855 67.2892C147.581 68.4267 146.187 68.832 144.35 68.3899C143.282 68.1331 142.37 67.6915 141.583 67.0393L141.394 67.8268C142.154 68.4356 143.123 68.8723 144.26 69.146Z" fill="black"/>
<path d="M151.046 74.291C152.314 74.5578 153.348 73.8372 154.49 72.2564L160.702 63.7959L159.839 63.6144L155.008 70.2316L153.146 62.2065L152.247 62.0176L154.399 71.1152C153.697 72.0897 153.112 72.7758 152.649 73.1384C152.201 73.5223 151.694 73.6549 151.113 73.5327C150.726 73.4512 150.374 73.2853 150.063 73.0174L149.903 73.7749C150.148 74.0103 150.535 74.1836 151.046 74.291Z" fill="black"/>
<path d="M165.397 67.49C165.103 68.8457 164.85 69.7696 164.379 70.7834C163.926 71.8003 163.256 72.2856 162.458 72.1452C162.316 72.1203 162.192 72.0985 162.106 72.0652L161.975 72.8097C162.061 72.843 162.167 72.8618 162.291 72.8836C163.479 73.0925 164.395 72.5592 164.992 71.3482C165.3 70.7443 165.53 70.1634 165.703 69.5909C165.877 69.0183 166.058 68.3008 166.229 67.4353L166.597 65.6541L170.976 66.4243L169.616 74.1536L170.414 74.2939L171.901 65.8378L165.945 64.7901L165.397 67.49Z" fill="black"/>
<path d="M177.686 75.4109C179.627 75.6963 180.927 74.7776 181.167 73.1392C181.408 71.5009 180.388 70.2773 178.446 69.9919L175.098 69.4995L175.552 66.4186L174.75 66.3008L173.501 74.7954L177.686 75.4109ZM174.991 70.2297L178.232 70.7063C179.746 70.9289 180.526 71.8078 180.346 73.0366C180.165 74.2654 179.165 74.8824 177.651 74.6598L174.41 74.1831L174.991 70.2297Z" fill="black"/>
<path d="M185.525 76.4646L186.487 68.6758L189.738 69.0773L189.829 68.3449L182.522 67.4426L182.432 68.175L185.683 68.5765L184.721 76.3654L185.525 76.4646Z" fill="black"/>
<path d="M194.293 76.8994C192.788 76.7554 191.67 75.9613 191.802 74.5816C191.921 73.3453 193.11 72.6274 194.92 72.8006C195.995 72.9035 197.002 73.3434 197.96 74.1041L197.824 75.5196C197.036 76.3845 195.726 77.0366 194.293 76.8994ZM193.988 77.6297C195.511 77.7755 196.781 77.3545 197.817 76.3507C197.795 77.3431 198.374 77.9048 199.144 77.9785C199.449 78.0077 199.687 77.9762 199.857 77.9021L199.92 77.2391C199.77 77.2971 199.605 77.3175 199.408 77.2986C198.835 77.2437 198.523 76.7256 198.593 75.991L198.957 72.1923C199.155 70.1138 197.768 68.9322 195.546 68.7196C194.381 68.6081 193.332 68.7971 192.419 69.2702L192.34 70.0945C193.312 69.5727 194.309 69.3607 195.33 69.4584C197.266 69.6437 198.301 70.5384 198.143 72.1868L198.035 73.3157C197.074 72.5908 195.974 72.1782 194.774 72.0633C193.752 71.9655 192.886 72.1358 192.156 72.5902C191.445 73.0285 191.039 73.6768 190.958 74.5189C190.874 75.3969 191.132 76.1087 191.729 76.6721C192.346 77.2194 193.092 77.544 193.988 77.6297Z" fill="black"/>
<path d="M203.781 78.2611L204.352 70.4339L207.619 70.6723L207.673 69.9362L200.33 69.4006L200.277 70.1366L203.544 70.375L202.973 78.2022L203.781 78.2611Z" fill="black"/>
<path d="M210.355 77.1052C209.687 76.3536 209.368 75.438 209.417 74.3771C209.466 73.3162 209.867 72.4338 210.602 71.7468C211.354 71.0608 212.252 70.7417 213.313 70.7906C214.373 70.8395 215.238 71.2397 215.906 71.9913C216.592 72.7437 216.91 73.6593 216.861 74.7202C216.813 75.781 216.412 76.6635 215.659 77.3496C214.926 78.0185 214.028 78.3376 212.967 78.2887C211.906 78.2398 211.042 77.8396 210.355 77.1052ZM216.265 77.8821C217.151 77.04 217.631 75.999 217.689 74.7583C217.746 73.5176 217.363 72.4368 216.559 71.5168C215.754 70.5968 214.696 70.0976 213.347 70.0354C211.999 69.9733 210.881 70.3723 209.996 71.2144C209.11 72.0565 208.647 73.0983 208.59 74.339C208.533 75.5797 208.898 76.6596 209.702 77.5796C210.507 78.4996 211.584 78.9817 212.932 79.0439C214.281 79.106 215.38 78.7242 216.265 77.8821Z" fill="black"/>
<path d="M221.547 79.2288L221.628 71.7952L225.201 75.9566L225.507 75.9599L229.188 71.878L229.106 79.3115L229.916 79.3204L230.01 70.7349L229.236 70.7264L225.373 75.0044L221.605 70.6429L220.831 70.6344L220.737 79.2199L221.547 79.2288Z" fill="black"/>
</svg>
