<svg width="552" height="320" viewBox="0 0 552 320" fill="none" xmlns="http://www.w3.org/2000/svg">
<path d="M28.3949 1C28.3949 66.3725 26.9591 131.721 34.2569 196.737C35.5867 208.584 37.4195 220.357 39.1932 232.143C39.2508 232.525 41.9573 247.611 41.97 247.604C43.9373 246.508 42.2723 227.325 42.2785 225.804C42.3682 203.868 44.1238 182.192 45.7494 160.326C48.8848 118.151 51.997 75.5529 51.997 33.2363C51.997 29.3126 53.0535 17.9765 51.3028 21.4859C48.5224 27.0592 50.1125 39.5 49.9144 45.2186C48.2361 93.6638 47.0572 142.17 45.8265 190.63C44.9941 223.405 47.2339 256.844 43.9753 289.503C43.9523 289.734 43.7361 296.253 43.6668 291.668C43.5382 283.156 42.8462 274.665 42.587 266.157C41.2077 220.882 43.5739 175.74 46.135 130.564C48.0695 96.4402 46.4588 61.8692 50.6086 27.9022C50.8138 26.2224 50.9843 18.8145 53.6938 18.0072C54.8154 17.673 58.8001 18.255 59.2473 18.3164C72.5164 20.1382 85.6265 22.4865 98.9696 23.8824C186.585 33.048 274.644 24.21 362.371 21.9497C417.663 20.5251 472.893 19.0894 528.203 19.0894C531.38 19.0894 533.021 19.0894 528.82 19.0894C516.736 19.0894 504.652 19.0661 492.568 19.0894C398.364 19.2713 304.285 23.5176 210.115 24.5781C193.373 24.7666 177.541 23.2263 160.983 21.9497C158.188 21.7342 166.589 21.836 169.39 21.7178C188.185 20.9246 206.929 18.9612 225.696 17.6979C297.475 12.866 369.498 9.87432 441.43 8.80783C468.981 8.39935 496.475 8.5841 523.96 10.6632C530.099 11.1275 541.54 10.049 547.64 12.4412C552.88 14.4962 550.43 40.6603 550.416 44.2909C550.209 99.3542 541.493 154.054 539.926 209.106C539.195 234.817 539.475 260.554 542.703 286.102C544.01 296.442 550.319 327.007 547.331 317.024C542.688 301.51 541.311 283.559 539.001 267.703C532.127 220.515 527.177 173.13 524.192 125.539C522.917 105.207 519.539 44.1885 520.335 64.5449C521.852 103.312 524.303 142.045 525.889 180.812C527.268 214.547 529.591 248.463 529.591 282.236C529.591 290.496 514.815 284.043 509.537 283.551C486.876 281.438 463.991 281.179 441.276 279.84C387.845 276.69 334.447 273.939 280.921 272.96C204.913 271.569 128.924 273.759 52.9225 272.651C36.9562 272.418 20.8772 272.576 4.94716 271.259C3.81509 271.166 2.49854 270.318 1.5534 270.95C-1.4547 272.96 8.61416 272.556 12.1975 273.037C44.9409 277.432 79.3991 275.229 112.236 274.892C177.501 274.223 242.729 271.825 307.994 271.182C383.73 270.435 459.419 272.341 535.144 272.341" stroke="black" stroke-linecap="round" stroke-linejoin="round"/>
</svg>
