<svg width="319" height="115" viewBox="0 0 319 115" fill="none" xmlns="http://www.w3.org/2000/svg">
<path d="M16.2168 60.9904L16.0462 61.8006L3.71639 59.2053L5.69991 49.7818L18.0297 52.3771L17.8592 53.1873L6.28677 50.7515L4.64434 58.5545L16.2168 60.9904Z" fill="#432F21"/>
<path d="M17.6935 48.1054C18.6498 47.7554 19.3556 47.1106 19.8108 46.171C20.2712 45.2207 20.3372 44.2726 20.0088 43.3268C19.6747 42.3649 19.0272 41.6511 18.066 41.1854C17.1049 40.7198 16.1434 40.6539 15.1815 40.988C14.2248 41.3112 13.5163 41.9479 13.0559 42.8983C12.5954 43.8486 12.5322 44.8047 12.8662 45.7666C13.2163 46.7229 13.8665 47.4313 14.8168 47.8918C15.7671 48.3522 16.726 48.4234 17.6935 48.1054ZM20.737 42.9796C21.1591 44.1175 21.0772 45.2912 20.4911 46.5007C19.8999 47.721 19.027 48.5181 17.8724 48.8921C16.7178 49.2661 15.5789 49.1811 14.4558 48.6369C13.3327 48.0928 12.5601 47.2517 12.138 46.1138C11.7103 44.9599 11.7895 43.7782 12.3755 42.5687C12.9563 41.3699 13.832 40.5808 15.0026 40.2012C16.1733 39.8217 17.3147 39.9014 18.4271 40.4403C19.5394 40.9792 20.3094 41.8256 20.737 42.9796Z" fill="#432F21"/>
<path d="M25.3812 41.205L25.002 41.9003L21.9994 40.2631L22.5078 39.3307C21.8506 37.7285 20.1207 36.1634 17.3183 34.6353L16.4103 34.1197L19.3057 28.8098L26.1959 32.5668L26.9887 31.1129L29.9913 32.7502L29.6122 33.4455L27.2575 32.1616L23.0265 39.921L25.3812 41.205ZM22.9559 38.5089L25.8081 33.278L19.5658 29.8742L17.4288 33.7935L17.9661 34.0864C20.463 35.4479 22.1263 36.9221 22.9559 38.5089Z" fill="#432F21"/>
<path d="M31.2958 27.3108C30.4293 28.3538 29.3931 28.9439 28.1872 29.0809C26.9644 29.2195 25.8499 28.8709 24.8438 28.0351C23.8469 27.207 23.2739 26.2161 23.1246 25.0624C22.9661 23.9011 23.2894 22.8359 24.0945 21.8667C24.547 21.3221 25.0565 20.9341 25.6231 20.7028C26.1804 20.4638 26.7357 20.3869 27.289 20.4721C28.3417 20.6133 29.2372 20.9907 29.9757 21.6041L30.1833 21.7767L25.4445 27.4811C26.2998 28.1604 27.2152 28.4294 28.1906 28.2881C29.1829 28.1452 30.0471 27.6307 30.7833 26.7446C31.4427 25.9508 31.8255 25.0675 31.9315 24.0948L32.5407 24.6009C32.5082 25.4475 32.0932 26.3508 31.2958 27.3108ZM24.916 27.0187L29.1258 21.9511C28.8673 21.7364 28.5659 21.5641 28.2215 21.434C27.8772 21.3039 27.5037 21.2277 27.1011 21.2052C26.697 21.1659 26.2784 21.2472 25.8455 21.4492C25.4033 21.6434 25.0096 21.9482 24.6646 22.3636C24.0204 23.139 23.7521 23.9691 23.8594 24.8539C23.9668 25.7387 24.319 26.4603 24.916 27.0187Z" fill="#432F21"/>
<path d="M32.3353 17.6353L30.8967 15.2858L35.9704 11.9939L40.6437 19.1966L39.9642 19.6375L35.6926 13.0538L31.9628 15.4738L32.9071 17.0283C33.3477 17.7294 33.7091 18.3747 33.9913 18.964C34.264 19.5166 34.4897 20.1068 34.6683 20.7348C35.0646 22.0512 34.7544 23.0392 33.7377 23.6989C33.6068 23.7838 33.5129 23.8375 33.4561 23.8601L33.0446 23.2259C33.1014 23.2033 33.2054 23.1431 33.3564 23.0451C34.051 22.5944 34.2103 21.8258 33.8344 20.7394C33.5489 19.8804 33.0492 18.8457 32.3353 17.6353Z" fill="#432F21"/>
<path d="M43.2278 18.2604L42.5035 18.4771L40.0424 10.2513L40.8184 10.0192L42.9286 17.0722L46.7161 8.25461L47.4231 8.04307L49.8842 16.2688L49.1082 16.501L47.0031 9.46513L43.2278 18.2604Z" fill="#432F21"/>
<path d="M55.4734 16.2879C54.1536 16.3115 53.066 15.8928 52.2105 15.032C51.3428 14.1593 50.8978 13.0991 50.8755 11.8513C50.8534 10.6155 51.2604 9.54607 52.0964 8.643C52.9206 7.75214 53.9986 7.29482 55.3304 7.27103C56.2903 7.25389 57.1581 7.46043 57.9339 7.89064L57.948 8.68251C57.1358 8.22895 56.2978 8.00988 55.4339 8.0253C54.3541 8.04459 53.4546 8.42071 52.7356 9.15366C52.0286 9.88641 51.6846 10.7867 51.7037 11.8545C51.7227 12.9224 52.0986 13.8098 52.8314 14.5168C53.5879 15.2114 54.5001 15.5492 55.5679 15.5301C56.5758 15.5121 57.4588 15.2263 58.217 14.6727L58.2315 15.4825C57.4846 16 56.5653 16.2684 55.4734 16.2879Z" fill="#432F21"/>
<path d="M64.6489 17.1887L60.4632 16.5786L61.7016 8.08235L62.5032 8.19918L62.054 11.2806L65.4026 11.7687C66.3644 11.9089 67.0889 12.2631 67.5761 12.8313C68.0632 13.3995 68.247 14.0933 68.1276 14.9127C68.0065 15.7439 67.6364 16.369 67.0175 16.7882C66.4003 17.1954 65.6108 17.3289 64.6489 17.1887ZM61.9475 12.0109L61.3712 15.9651L64.6129 16.4376C65.3729 16.5484 65.9857 16.4619 66.4516 16.1781C66.931 15.8842 67.2157 15.4285 67.3057 14.811C67.3957 14.1936 67.252 13.6815 66.8748 13.2748C66.5111 12.858 65.9492 12.5942 65.1893 12.4834L61.9475 12.0109Z" fill="#432F21"/>
<path d="M76.4838 21.1365C75.3023 20.5478 74.531 19.6741 74.1699 18.5154C73.8034 17.3406 73.8984 16.1947 74.455 15.0777C75.0063 13.9714 75.8612 13.2109 77.0198 12.7961C78.1623 12.3867 79.3297 12.479 80.5219 13.073C81.3811 13.5012 82.0554 14.0852 82.5448 14.8251L82.1915 15.534C81.6807 14.7566 81.0386 14.1752 80.2652 13.7898C79.2986 13.3082 78.3271 13.2263 77.3509 13.5443C76.3853 13.8676 75.6644 14.5072 75.1881 15.4631C74.7118 16.419 74.6352 17.3797 74.9586 18.3452C75.3087 19.3107 75.9617 20.0317 76.9176 20.508C77.8198 20.9575 78.735 21.1119 79.6633 20.9711L79.302 21.6961C78.4006 21.81 77.4612 21.6235 76.4838 21.1365Z" fill="#432F21"/>
<path d="M83.9161 26.1979L80.4548 22.9683L86.3122 16.6906L89.5103 19.6745C90.0893 20.2148 90.4061 20.7812 90.4606 21.3736C90.5233 21.9573 90.3295 22.4904 89.8792 22.973C89.2243 23.6749 88.5184 23.8861 87.7616 23.6067C88.3653 24.6131 88.2701 25.5419 87.4761 26.3929C87.0012 26.9018 86.4407 27.142 85.7945 27.1134C85.1652 27.0843 84.539 26.7791 83.9161 26.1979ZM83.8099 20.5597L81.5505 22.9813L84.3011 25.5477C84.7837 25.998 85.2548 26.2406 85.7145 26.2757C86.1742 26.3107 86.5841 26.1352 86.9443 25.7491C87.3045 25.3631 87.4513 24.9419 87.3845 24.4858C87.3178 24.0296 87.0431 23.5764 86.5606 23.1261L83.8099 20.5597ZM86.4009 17.7827L84.3134 20.0201L86.7613 22.3041C87.2088 22.7216 87.641 22.9444 88.058 22.9724C88.4838 23.0086 88.8645 22.8468 89.2002 22.4871C89.5358 22.1273 89.6708 21.7364 89.6053 21.3141C89.5485 20.9001 89.2963 20.4843 88.8489 20.0668L86.4009 17.7827Z" fill="#432F21"/>
<path d="M88.6674 30.2362C88.4313 31.2268 88.5792 32.1713 89.1113 33.0695C89.6494 33.9781 90.4035 34.5566 91.3734 34.805C92.3598 35.0575 93.3125 34.9117 94.2314 34.3674C95.1503 33.8232 95.7361 33.0578 95.9887 32.0714C96.2473 31.0953 96.1076 30.153 95.5695 29.2444C95.0313 28.3358 94.2691 27.7552 93.2826 27.5027C92.292 27.2665 91.3424 27.4175 90.4338 27.9557C89.5252 28.4938 88.9364 29.254 88.6674 30.2362ZM91.2608 35.6039C90.0791 35.3275 89.1457 34.6112 88.4608 33.4548C87.7698 32.2881 87.5871 31.1201 87.9127 29.951C88.2384 28.7818 88.9381 27.8793 90.0119 27.2433C91.0857 26.6073 92.2134 26.4274 93.3952 26.7038C94.5935 26.9843 95.535 27.7028 96.2199 28.8591C96.8987 30.0052 97.0732 31.171 96.7434 32.3566C96.4135 33.5422 95.7168 34.45 94.6534 35.0798C93.5899 35.7097 92.4591 35.8844 91.2608 35.6039Z" fill="#432F21"/>
<path d="M92.7988 40.2329L92.4633 39.5554L100.158 35.7455L100.517 36.4714L93.9196 39.7382L103.249 41.9882L103.576 42.6495L95.8818 46.4594L95.5224 45.7335L102.104 42.4748L92.7988 40.2329Z" fill="#432F21"/>
<path d="M99.2602 52.417L98.5541 52.0202L102.76 44.5349L103.435 44.9141L104.645 50.5496L110.088 48.6527L110.763 49.0318L106.557 56.5171L105.851 56.1204L109.493 49.6394L104.304 51.4518L104.037 51.3019L102.902 45.936L99.2602 52.417Z" fill="#432F21"/>
<path d="M121.38 50.9591C122.663 51.0115 123.694 51.4979 124.473 52.4184C125.252 53.339 125.616 54.4107 125.567 55.6337C125.516 56.8687 125.065 57.9132 124.214 58.7672C123.362 59.6212 122.295 60.022 121.012 59.9696C119.489 59.9075 118.332 59.2778 117.54 58.0805L117.331 63.2062L116.522 63.1732L117.019 50.9973L117.828 51.0304L117.766 52.5411C118.664 51.4248 119.869 50.8975 121.38 50.9591ZM121.205 51.7086C120.462 51.6783 119.77 51.8482 119.13 52.2185C118.491 52.5887 118.02 53.0799 117.719 53.6921L117.587 56.9294C117.849 57.5647 118.284 58.0988 118.891 58.5319C119.51 58.9535 120.18 59.179 120.899 59.2084C121.954 59.2514 122.844 58.9274 123.569 58.2364C124.306 57.5339 124.696 56.6551 124.739 55.6C124.783 54.5328 124.465 53.6311 123.787 52.8949C123.121 52.1471 122.26 51.7517 121.205 51.7086Z" fill="#432F21"/>
<path d="M133.185 59.1687C131.845 59.3744 130.678 59.1285 129.685 58.4311C128.678 57.7237 128.075 56.7236 127.877 55.4307C127.68 54.1497 127.909 53.0281 128.562 52.0658C129.214 51.0916 130.163 50.509 131.408 50.3178C132.108 50.2104 132.747 50.2581 133.324 50.4608C133.9 50.6517 134.366 50.9625 134.724 51.3933C135.418 52.1973 135.838 53.0738 135.983 54.0227L136.024 54.2895L128.694 55.4146C128.883 56.4903 129.39 57.2988 130.214 57.8401C131.051 58.3915 132.039 58.5798 133.178 58.405C134.198 58.2485 135.07 57.8414 135.795 57.1839L135.915 57.9667C135.329 58.5787 134.419 58.9793 133.185 59.1687ZM128.605 54.718L135.117 53.7185C135.066 53.3864 134.955 53.0575 134.783 52.7317C134.612 52.406 134.383 52.1012 134.097 51.8173C133.82 51.5198 133.453 51.303 132.995 51.1669C132.536 51.0189 132.039 50.9859 131.505 51.0678C130.509 51.2207 129.757 51.6639 129.251 52.3972C128.744 53.1305 128.529 53.9041 128.605 54.718Z" fill="#432F21"/>
<path d="M142.947 56.9477C141.793 57.2779 140.745 57.3657 139.802 57.2112L139.579 56.4324C140.567 56.6117 141.591 56.5494 142.653 56.2457C143.564 55.9848 144.25 55.6137 144.712 55.1322C145.17 54.6391 145.319 54.1157 145.161 53.5619C145.012 53.0428 144.659 52.7009 144.1 52.5363C143.549 52.3569 142.887 52.3778 142.114 52.599L140.73 52.9952L140.527 52.2857L141.911 51.8895C142.627 51.6848 143.135 51.3895 143.436 51.0037C143.75 50.6145 143.847 50.2123 143.728 49.7969C143.586 49.3009 143.246 48.9862 142.709 48.8529C142.183 48.7163 141.516 48.7636 140.708 48.9947C139.774 49.2621 138.91 49.7092 138.115 50.3359L137.897 49.5745C138.641 48.9873 139.549 48.5403 140.622 48.2332C141.568 47.9625 142.397 47.9374 143.109 48.158C143.833 48.3752 144.287 48.8069 144.472 49.453C144.726 50.3413 144.393 51.117 143.471 51.78C144.828 51.7662 145.661 52.3016 145.972 53.386C146.186 54.1359 146.019 54.839 145.471 55.4953C144.93 56.1367 144.089 56.6209 142.947 56.9477Z" fill="#432F21"/>
<path d="M151.165 58.0703C150.664 58.2357 150.248 58.278 149.918 58.1972L149.676 57.4622C150.067 57.5355 150.456 57.5083 150.843 57.3805C151.402 57.1963 151.778 56.8257 151.974 56.2684C152.192 55.7417 152.358 54.8656 152.472 53.6403L146.044 46.8519L146.916 46.5644L152.555 52.5704L153.412 44.422L154.249 44.1457L153.123 54.5815C153.025 55.5868 152.821 56.3679 152.512 56.9247C152.218 57.4892 151.769 57.8711 151.165 58.0703Z" fill="#432F21"/>
<path d="M158.238 45.7028L157.46 43.06L163.215 41.201L165.854 49.3713L165.083 49.6203L162.671 42.1522L158.44 43.5188L158.948 45.2654C159.191 46.057 159.372 46.774 159.491 47.4165C159.611 48.021 159.675 48.6496 159.684 49.3025C159.725 50.6766 159.168 51.5499 158.015 51.9225C157.866 51.9704 157.762 51.9979 157.701 52.0049L157.469 51.2855C157.529 51.2785 157.645 51.2473 157.817 51.192C158.605 50.9375 158.958 50.2368 158.878 49.09C158.826 48.1863 158.612 47.0573 158.238 45.7028Z" fill="#432F21"/>
<path d="M172.902 47.3963L168.811 48.4707L166.631 40.1662L167.414 39.9605L168.205 42.9724L171.478 42.1129C172.418 41.866 173.223 41.9089 173.894 42.2415C174.564 42.5741 175.005 43.1409 175.215 43.9417C175.428 44.7542 175.332 45.4743 174.926 46.1019C174.517 46.718 173.843 47.1495 172.902 47.3963ZM168.392 43.6862L169.407 47.5511L172.576 46.7191C173.319 46.524 173.849 46.2049 174.167 45.7616C174.493 45.3037 174.577 44.773 174.419 44.1694C174.26 43.5659 173.928 43.1507 173.422 42.9238C172.924 42.6823 172.304 42.6591 171.561 42.8541L168.392 43.6862Z" fill="#432F21"/>
<path d="M180.954 45.6568L180.161 45.8226L178.555 38.1407L175.348 38.8111L175.197 38.0887L182.403 36.5821L182.554 37.3045L179.348 37.9749L180.954 45.6568Z" fill="#432F21"/>
<path d="M188.315 43.3953C188.982 43.2426 189.572 42.9413 190.084 42.4915C190.597 42.0417 190.979 41.5355 191.232 40.9729L190.914 39.5868C189.758 39.1622 188.66 39.0691 187.619 39.3076C186.742 39.5086 186.089 39.8552 185.66 40.3474C185.228 40.8279 185.082 41.3723 185.221 41.9805C185.371 42.6355 185.732 43.0822 186.304 43.3206C186.873 43.5473 187.543 43.5722 188.315 43.3953ZM188.256 44.1845C187.39 44.3828 186.575 44.3172 185.81 43.9876C185.066 43.6411 184.596 43.0408 184.401 42.187C184.21 41.3565 184.386 40.6206 184.929 39.9792C185.469 39.3262 186.242 38.8845 187.248 38.654C188.441 38.3807 189.604 38.4343 190.738 38.8148L190.484 37.7094C190.12 36.1186 188.943 35.551 186.955 36.0065C185.949 36.2369 185.07 36.7523 184.318 37.5525L184.133 36.7454C184.861 36 185.792 35.4974 186.927 35.2374C188.049 34.9802 188.993 35.0411 189.757 35.4201C190.53 35.7847 191.03 36.4641 191.258 37.4583L192.11 41.178C192.193 41.5406 192.342 41.8143 192.557 41.999C192.769 42.172 193.015 42.2264 193.296 42.1621C193.483 42.1192 193.638 42.0466 193.763 41.9443L193.912 42.5935C193.769 42.7245 193.552 42.8236 193.259 42.8906C192.862 42.9817 192.5 42.9352 192.175 42.7512C191.859 42.5528 191.629 42.2237 191.487 41.7639C190.819 43.0373 189.741 43.8442 188.256 44.1845Z" fill="#432F21"/>
<path d="M198.596 42.0278L197.792 42.1266L196.835 34.3371L193.583 34.7365L193.493 34.004L200.8 33.1065L200.89 33.839L197.639 34.2384L198.596 42.0278Z" fill="#432F21"/>
<path d="M204.155 40.1908C204.911 40.8736 205.81 41.1974 206.854 41.1621C207.909 41.1264 208.779 40.7428 209.462 40.0112C210.158 39.2673 210.487 38.3616 210.451 37.2942C210.415 36.2269 210.025 35.3455 209.281 34.6503C208.549 33.9547 207.655 33.6247 206.6 33.6604C205.544 33.6961 204.669 34.0859 203.974 34.8299C203.291 35.5854 202.968 36.4909 203.003 37.5463C203.039 38.6017 203.423 39.4832 204.155 40.1908ZM210.109 40.4936C209.299 41.3975 208.222 41.8722 206.879 41.9177C205.524 41.9635 204.412 41.5629 203.543 40.7158C202.674 39.8687 202.218 38.8215 202.176 37.5743C202.133 36.327 202.517 35.2514 203.327 34.3475C204.149 33.4312 205.231 32.9503 206.574 32.9048C207.906 32.8598 209.012 33.2666 209.893 34.1253C210.775 34.984 211.237 36.0309 211.278 37.2662C211.32 38.5015 210.93 39.5773 210.109 40.4936Z" fill="#432F21"/>
<path d="M215.328 41.352L214.518 41.3689L214.339 32.7848L215.113 32.7686L219.018 37.0079L222.743 32.6092L223.517 32.593L223.696 41.1771L222.887 41.194L222.731 33.7617L219.182 37.9587L218.876 37.9651L215.173 33.9196L215.328 41.352Z" fill="#432F21"/>
<path d="M235.454 41.5513C234.136 41.4828 233.08 40.9893 232.287 40.0709C231.482 39.1399 231.112 38.0512 231.177 36.8049C231.241 35.5706 231.721 34.5321 232.618 33.6895C233.502 32.8583 234.61 32.4772 235.94 32.5464C236.899 32.5962 237.75 32.8627 238.494 33.346L238.453 34.1369C237.674 33.6278 236.853 33.3508 235.991 33.306C234.912 33.25 233.989 33.5625 233.22 34.2435C232.464 34.9252 232.058 35.7993 232.002 36.8658C231.947 37.9324 232.26 38.8439 232.942 39.6003C233.648 40.3459 234.535 40.7465 235.601 40.8019C236.608 40.8542 237.509 40.6306 238.304 40.1312L238.261 40.9401C237.48 41.4042 236.545 41.6079 235.454 41.5513Z" fill="#432F21"/>
<path d="M244.021 45.1566L243.252 44.9657L244.077 41.6466L245.108 41.9026C246.491 40.8615 247.568 38.7921 248.338 35.6942L248.607 34.6854L254.476 36.1435L252.584 43.76L254.191 44.1593L253.367 47.4784L252.598 47.2875L253.245 44.6846L244.668 42.5537L244.021 45.1566ZM246.016 42.1283L251.798 43.5647L253.512 36.6645L249.18 35.5882L249.032 36.1822C248.347 38.9423 247.341 40.9243 246.016 42.1283Z" fill="#432F21"/>
<path d="M263.034 39.7874C264.185 40.3559 264.93 41.2189 265.268 42.3764C265.607 43.5339 265.505 44.6614 264.963 45.7589C264.416 46.8672 263.58 47.6388 262.455 48.0737C261.33 48.5086 260.192 48.4419 259.041 47.8734C257.674 47.1986 256.872 46.1534 256.635 44.7378L254.363 49.3376L253.637 48.979L259.032 38.0525L259.759 38.4111L259.089 39.7668C260.363 39.1111 261.678 39.118 263.034 39.7874ZM262.57 40.4015C261.903 40.0721 261.202 39.9468 260.467 40.0256C259.732 40.1044 259.103 40.3625 258.579 40.7998L257.145 43.7049C257.127 44.3919 257.307 45.0565 257.686 45.6986C258.081 46.3352 258.601 46.813 259.247 47.1317C260.193 47.5993 261.138 47.6644 262.081 47.3269C263.04 46.9841 263.753 46.3392 264.221 45.3923C264.694 44.4347 264.769 43.4818 264.448 42.5335C264.143 41.5797 263.517 40.8691 262.57 40.4015Z" fill="#432F21"/>
<path d="M263.464 53.547C263.022 53.2581 262.729 52.9595 262.587 52.6513L263.01 52.0034C263.196 52.3545 263.46 52.6417 263.802 52.8649C264.294 53.1866 264.819 53.25 265.376 53.0552C265.924 52.8971 266.712 52.4806 267.741 51.8055L269.04 42.5475L269.808 43.0498L268.629 51.2033L275.534 46.7919L276.272 47.2744L267.412 52.9019C266.565 53.4521 265.827 53.78 265.199 53.8856C264.574 54.0078 263.996 53.8949 263.464 53.547Z" fill="#432F21"/>
<path d="M274.967 57.376C274.008 56.6545 273.306 55.8711 272.861 55.0256L273.348 54.3784C273.8 55.2742 274.467 56.054 275.35 56.7177C276.107 57.2877 276.817 57.6115 277.479 57.6893C278.149 57.7575 278.657 57.5614 279.003 57.1011C279.328 56.6696 279.387 56.1813 279.182 55.6362C278.993 55.0887 278.577 54.5733 277.935 54.09L276.784 53.2243L277.228 52.6345L278.378 53.5002C278.973 53.9475 279.515 54.1751 280.005 54.183C280.504 54.1982 280.883 54.0331 281.143 53.6879C281.453 53.2756 281.499 52.8148 281.282 52.3057C281.074 51.8038 280.634 51.3004 279.963 50.7954C279.186 50.211 278.308 49.7909 277.33 49.5351L277.806 48.9022C278.722 49.1411 279.626 49.5961 280.518 50.267C281.304 50.8586 281.824 51.5049 282.078 52.2061C282.34 52.9145 282.27 53.5372 281.866 54.0742C281.31 54.8126 280.491 55.0142 279.406 54.6789C280.235 55.753 280.31 56.7407 279.632 57.6421C279.163 58.2654 278.502 58.556 277.647 58.5139C276.81 58.4695 275.916 58.0902 274.967 57.376Z" fill="#432F21"/>
<path d="M283.094 64.1588L280.138 61.1326L286.281 55.1336L286.847 55.713L284.619 57.8888L286.983 60.3098C287.663 61.0051 288.023 61.7265 288.065 62.4737C288.107 63.221 287.832 63.8839 287.24 64.4624C286.639 65.0493 285.965 65.3214 285.219 65.2786C284.481 65.2275 283.773 64.8542 283.094 64.1588ZM284.091 58.4044L281.232 61.1964L283.521 63.5401C284.058 64.0896 284.597 64.393 285.14 64.4503C285.699 64.5078 286.202 64.3186 286.648 63.8826C287.095 63.4466 287.292 62.9525 287.239 62.4003C287.203 61.8483 286.917 61.2976 286.38 60.7481L284.091 58.4044Z" fill="#432F21"/>
<path d="M286.36 67.8676L285.798 67.0748L290.233 67.2614C289.854 66.6031 289.725 65.9742 289.844 65.3748C289.973 64.7684 290.331 64.2569 290.918 63.8404C291.545 63.3962 292.193 63.2526 292.864 63.4097C293.551 63.5697 294.162 64.0265 294.696 64.7802L297.206 68.3187L290.202 73.2855L289.733 72.6248L292.508 70.6568L290.645 68.0286L286.36 67.8676ZM291.132 67.4402L293.11 70.2299L296.135 68.0849L294.157 65.2952C293.747 64.7177 293.296 64.3612 292.802 64.2256C292.316 64.0998 291.833 64.2069 291.353 64.5471C290.883 64.8803 290.622 65.3007 290.571 65.8083C290.535 66.3187 290.723 66.8627 291.132 67.4402Z" fill="#432F21"/>
<path d="M292.374 76.7806L291.962 76.0835L299.351 71.7106L299.745 72.3767L297.971 77.8609L303.632 78.9447L304.026 79.6108L296.637 83.9837L296.225 83.2866L302.622 79.5005L297.223 78.4707L297.067 78.2074L298.772 72.9944L292.374 76.7806Z" fill="#432F21"/>
<path d="M298.656 87.5105L298.291 86.8484L305.81 82.704L306.201 83.4134L299.754 86.967L309.173 88.8048L309.529 89.4511L302.01 93.5955L301.619 92.8861L308.05 89.3412L298.656 87.5105Z" fill="#432F21"/>
<path d="M307.169 95.4028L306.82 94.7324L314.624 90.5445L315.073 91.4065L307.169 95.4028ZM303.577 96.3C303.653 96.0304 303.822 95.8746 304.085 95.8326C304.352 95.8013 304.566 95.8729 304.724 96.0474C304.893 96.2163 304.948 96.4382 304.888 96.7129C304.812 96.9825 304.64 97.133 304.372 97.1643C304.11 97.2062 303.9 97.14 303.741 96.9655C303.572 96.7966 303.517 96.5747 303.577 96.3Z" fill="#432F21"/>
</svg>
