<svg width="63" height="46" viewBox="0 0 63 46" fill="none" xmlns="http://www.w3.org/2000/svg">
<g clip-path="url(#clip0)">
<path fill-rule="evenodd" clip-rule="evenodd" d="M0.118127 22.8368C-1.5541 10.4544 10.113 0.307675 26.1673 0.194215C42.2216 0.080754 61.1796 4.08056 62.8377 16.4601C64.4958 28.8396 48.2874 44.9037 32.2295 45.0355C16.1715 45.1673 1.77223 35.2117 0.118127 22.8368Z" fill="#F0AA87"/>
<path d="M16.4801 14.3652C17.4941 14.3652 19.0392 14.3652 19.9083 14.3652C20.3429 14.3652 20.6809 14.6549 20.8258 15.0412C21.2603 16.2966 22.226 19.0489 23.3366 20.932C24.8334 23.3945 25.7991 24.3119 26.4268 24.2154C27.0545 24.0705 26.8614 22.4288 26.8614 21.1251C26.8614 19.8214 26.3785 16.5863 26.3785 16.5863L26.2762 15.3792C26.2762 15.3792 25.9923 14.3652 26.3785 14.3652L31.3036 14.4135C31.8347 14.4135 32.2693 14.8481 32.2693 15.3792V22.3805C32.2693 22.3805 32.5107 23.636 33.8627 22.3323C35.2147 21.0286 36.6632 18.6143 37.8704 16.1518L38.3532 14.9929C38.4981 14.6549 38.8361 14.4135 39.2223 14.4135H42.7954C43.4714 14.4135 43.9543 15.0895 43.7128 15.7172L43.3266 16.7312C43.3266 16.7312 42.0229 19.3386 40.6709 21.1734C39.3189 23.0565 39.0292 23.4911 39.2223 23.9739C39.4155 24.4568 42.892 27.6919 43.7611 29.237C44.0025 29.6716 44.1957 30.0579 44.3888 30.3959C44.7268 31.0236 44.244 31.8444 43.5197 31.8444H39.4638C39.1258 31.8444 38.7878 31.6513 38.6429 31.3616L38.2566 30.7339C38.2566 30.7339 35.7941 27.8368 34.2973 26.9193C32.7521 26.0502 32.8004 27.3056 32.8004 27.3056V29.8647C32.8004 30.927 31.9313 31.7961 30.869 31.7961H29.9033C29.9033 31.7961 24.592 31.7961 20.3429 25.4708C17.0112 20.5457 15.9007 17.3589 15.5144 15.5241C15.4178 14.9447 15.8524 14.3652 16.4801 14.3652Z" fill="#F6F2F1"/>
</g>
<defs>
<clipPath id="clip0">
<rect width="63" height="45" fill="white" transform="translate(0 0.104492)"/>
</clipPath>
</defs>
</svg>
