<svg width="63" height="46" viewBox="0 0 63 46" fill="none" xmlns="http://www.w3.org/2000/svg">
<g clip-path="url(#clip0)">
<path fill-rule="evenodd" clip-rule="evenodd" d="M0.118127 22.8368C-1.5541 10.4544 10.113 0.307675 26.1673 0.194215C42.2216 0.080754 61.1796 4.08056 62.8377 16.4601C64.4958 28.8396 48.2874 44.9037 32.2295 45.0355C16.1715 45.1673 1.77223 35.2117 0.118127 22.8368Z" fill="#F0AA87"/>
<path d="M35.316 24.1934L35.8308 20.8368H32.6103V18.6586C32.6103 17.7403 33.0601 16.8452 34.5026 16.8452H35.9669V13.9876C35.9669 13.9876 34.638 13.7607 33.3676 13.7607C30.7151 13.7607 28.9816 15.3683 28.9816 18.2785V20.8368H26.0332V24.1934H28.9816V32.3077C29.5728 32.4004 30.1787 32.4487 30.7959 32.4487C31.4132 32.4487 32.0191 32.4004 32.6103 32.3077V24.1934H35.316Z" fill="#F6F2F1"/>
</g>
<defs>
<clipPath id="clip0">
<rect width="63" height="45" fill="white" transform="translate(0 0.104492)"/>
</clipPath>
</defs>
</svg>
