<svg width="63" height="45" viewBox="0 0 63 45" fill="none" xmlns="http://www.w3.org/2000/svg">
<g clip-path="url(#clip0)">
<path fill-rule="evenodd" clip-rule="evenodd" d="M-0.368201 22.7323C-2.04043 10.3499 9.62663 0.203183 25.6809 0.0897227C41.7352 -0.0237382 60.6933 3.97606 62.3513 16.3556C64.0094 28.7351 47.8011 44.7992 31.7431 44.931C15.6852 45.0628 1.2859 35.1072 -0.368201 22.7323Z" fill="#F0AA87"/>
<path d="M33.7484 15.5029H26.2514C24.1812 15.5029 22.5029 17.1812 22.5029 19.2514V26.7484C22.5029 28.8187 24.1812 30.4969 26.2514 30.4969H33.7484C35.8187 30.4969 37.4969 28.8187 37.4969 26.7484V19.2514C37.4969 17.1812 35.8187 15.5029 33.7484 15.5029Z" stroke="#F6F2F1" stroke-width="2" stroke-linecap="round" stroke-linejoin="round"/>
<path d="M33.0013 22.5257C33.0938 23.1497 32.9872 23.7869 32.6967 24.3468C32.4062 24.9066 31.9466 25.3606 31.3832 25.6442C30.8198 25.9278 30.1813 26.0265 29.5585 25.9263C28.9358 25.8261 28.3605 25.5321 27.9145 25.0861C27.4685 24.6401 27.1744 24.0648 27.0742 23.442C26.974 22.8193 27.0727 22.1808 27.3563 21.6174C27.6399 21.054 28.0939 20.5943 28.6538 20.3038C29.2137 20.0133 29.8509 19.9067 30.4748 19.9992C31.1112 20.0936 31.7005 20.3902 32.1554 20.8451C32.6104 21.3001 32.9069 21.8893 33.0013 22.5257Z" stroke="#F6F2F1" stroke-width="2" stroke-linecap="round" stroke-linejoin="round"/>
</g>
<defs>
<clipPath id="clip0">
<rect width="63" height="45" fill="white"/>
</clipPath>
</defs>
</svg>