<svg width="63" height="46" viewBox="0 0 63 46" fill="none" xmlns="http://www.w3.org/2000/svg">
<g clip-path="url(#clip0)">
<path fill-rule="evenodd" clip-rule="evenodd" d="M-0.368201 22.8368C-2.04043 10.4544 9.62663 0.307675 25.6809 0.194215C41.7352 0.080754 60.6933 4.08056 62.3513 16.4601C64.0094 28.8396 47.8011 44.9037 31.7431 45.0355C15.6852 45.1673 1.2859 35.2117 -0.368201 22.8368Z" fill="#F0AA87"/>
<path d="M33.7484 15.6074H26.2514C24.1812 15.6074 22.5029 17.2857 22.5029 19.3559V26.8529C22.5029 28.9232 24.1812 30.6014 26.2514 30.6014H33.7484C35.8187 30.6014 37.4969 28.9232 37.4969 26.8529V19.3559C37.4969 17.2857 35.8187 15.6074 33.7484 15.6074Z" stroke="#F6F2F1" stroke-width="3" stroke-linecap="round" stroke-linejoin="round"/>
<path d="M33.0013 22.6292C33.0938 23.2532 32.9872 23.8904 32.6967 24.4503C32.4062 25.0101 31.9466 25.4642 31.3832 25.7477C30.8198 26.0313 30.1813 26.13 29.5585 26.0298C28.9358 25.9296 28.3605 25.6356 27.9145 25.1896C27.4685 24.7436 27.1744 24.1683 27.0742 23.5455C26.974 22.9228 27.0727 22.2843 27.3563 21.7209C27.6399 21.1575 28.0939 20.6978 28.6538 20.4073C29.2137 20.1168 29.8509 20.0102 30.4748 20.1028C31.1112 20.1971 31.7005 20.4937 32.1554 20.9486C32.6104 21.4036 32.9069 21.9928 33.0013 22.6292Z" stroke="#F6F2F1" stroke-width="3" stroke-linecap="round" stroke-linejoin="round"/>
</g>
<defs>
<clipPath id="clip0">
<rect width="63" height="45" fill="white" transform="translate(0 0.104492)"/>
</clipPath>
</defs>
</svg>
